<svg width="108" height="47" viewBox="0 0 108 47" fill="none" xmlns="http://www.w3.org/2000/svg">
<mask id="mask0_5050_48318" style="mask-type:luminance" maskUnits="userSpaceOnUse" x="0" y="4" width="108" height="27">
<path d="M108 4H0V30.0545H108V4Z" fill="white"/>
</mask>
<g mask="url(#mask0_5050_48318)">
<path d="M21.4766 22.5219L18.0534 20.5099H18.0508C18.0059 20.4817 17.9538 20.4687 17.9017 20.4687C17.8487 20.4687 17.7966 20.4829 17.7504 20.5099L17.4634 20.6782L16.9885 20.9582C16.9885 20.9582 16.9826 20.9617 16.9801 20.9629L16.1779 21.4347L12.1402 23.8056C12.1402 23.8056 12.131 23.8115 12.1264 23.8138C11.9899 23.8903 11.8223 23.7879 11.8223 23.6291V17.2437C11.8223 17.219 11.835 17.1955 11.8569 17.1825L17.5524 13.8375L17.66 13.7751L17.9849 13.5833L18.0542 13.5433L21.4745 11.5302C21.864 11.3031 22.0964 10.8936 22.0977 10.4359C22.0977 9.97825 21.8666 9.5676 21.4757 9.33701L13.0317 4.3812C12.7045 4.18941 12.3472 4.06116 11.9783 4.00232C11.8951 3.98936 11.82 4.05761 11.82 4.14352V9.64996C11.82 9.69349 11.7818 9.72646 11.7402 9.71941C11.6766 9.7088 11.6014 9.70055 11.5181 9.70055C11.4349 9.70055 11.3609 9.7088 11.2962 9.71941C11.2545 9.72646 11.2164 9.69349 11.2164 9.64996V4.14352C11.2164 4.05761 11.1412 3.98821 11.058 4.00232C10.688 4.06116 10.3307 4.18941 10.0047 4.3812L1.511 9.36874C1.18608 9.56054 0.900487 9.81118 0.665786 10.1077C0.61145 10.1759 0.631116 10.2771 0.706254 10.3206L0.829972 10.3936L2.65219 11.4643L5.13694 12.9256H5.13808L5.43871 13.1021L5.39245 13.0703C5.42947 13.0915 5.43871 13.1409 5.41211 13.175C5.37165 13.2256 5.32773 13.2868 5.28726 13.3586C5.24448 13.4327 5.21326 13.5033 5.1901 13.5657C5.1751 13.6069 5.1277 13.6233 5.09068 13.601L4.83517 13.4562L0.791816 11.0795L0.530513 10.9254H0.529337L0.405619 10.8525C0.331658 10.8089 0.235677 10.8419 0.20563 10.923C0.0703149 11.2772 0.000976562 11.6549 0.000976562 12.0361V22.0183C0.000976562 22.4007 0.0703149 22.7784 0.20563 23.1325C0.236811 23.2137 0.331658 23.2467 0.405619 23.2031L0.531648 23.129L0.792992 22.9761L2.18972 22.1536L4.83749 20.5994L5.09068 20.4499C5.1277 20.4287 5.1751 20.4452 5.1901 20.4852C5.21326 20.5476 5.2433 20.617 5.28495 20.6899C5.32655 20.7629 5.37051 20.8252 5.41211 20.877C5.43871 20.91 5.42947 20.9605 5.39245 20.9818L5.14039 21.13H5.13926L1.09476 23.5079L0.832284 23.6608L0.708566 23.7349C0.634562 23.7785 0.614896 23.8797 0.668098 23.9479C0.902798 24.2432 1.1907 24.495 1.51445 24.6868L10.007 29.6768C10.3319 29.8674 10.688 29.9944 11.058 30.0532C11.1424 30.0662 11.2187 29.9992 11.2187 29.9121V24.4409C11.2187 24.3974 11.2568 24.3644 11.2985 24.3715C11.3621 24.3821 11.4372 24.3903 11.5205 24.3903C11.6037 24.3903 11.6777 24.3821 11.7425 24.3715C11.7841 24.3644 11.8223 24.3974 11.8223 24.4409V29.9121C11.8223 29.9992 11.8986 30.0674 11.983 30.0532C12.3518 29.9944 12.7091 29.8674 13.034 29.6768L21.4766 24.7174C21.8666 24.4868 22.099 24.0762 22.099 23.6173C22.099 23.1584 21.8666 22.7513 21.4791 22.5231L21.4766 22.5219ZM11.82 16.4966V10.4194C11.82 10.2618 11.9876 10.1618 12.1229 10.2395L12.1275 10.2418C12.1275 10.2418 12.1344 10.2453 12.1379 10.2477L17.007 13.108C17.007 13.108 17.0091 13.108 17.0091 13.1091C17.1352 13.188 17.1272 13.3786 16.9998 13.4527L11.82 16.4942V16.4966ZM11.2176 16.4966L6.04456 13.4574C5.91047 13.3786 5.90929 13.1833 6.04112 13.1021L10.8996 10.2489C10.8996 10.2489 10.9054 10.2453 10.9077 10.2442L10.9123 10.2418C11.0476 10.1629 11.2164 10.2618 11.2164 10.4206V16.4978L11.2176 16.4966ZM5.43985 19.871V14.1834C5.43985 14.0998 5.44796 14.0175 5.46414 13.9375C5.47456 13.8881 5.52772 13.8622 5.5705 13.8881L10.9169 17.0284L5.75091 20.0628C5.61563 20.1417 5.44334 20.0463 5.44103 19.8887C5.44103 19.8828 5.44103 19.8781 5.44103 19.8722L5.43985 19.871ZM10.8996 23.8067L6.05961 20.9629C6.05961 20.9629 6.05036 20.957 6.04574 20.9547C5.9116 20.8735 5.91623 20.6735 6.0515 20.5935L11.2176 17.559V23.6291C11.2176 23.7879 11.0499 23.8926 10.9146 23.815C10.91 23.8126 10.9042 23.8091 10.8996 23.8067Z" fill="white"/>
<path d="M32.7614 23.1678C31.1683 23.1678 29.8097 22.596 28.6856 21.4523C27.5619 20.3087 27 18.9262 27 17.3048C27 15.6835 27.5619 14.301 28.6856 13.1574C29.8097 12.0137 31.1683 11.4419 32.7614 11.4419C33.9675 11.4419 35.0542 11.7902 36.022 12.4879C36.9898 13.1844 37.6744 14.0869 38.0765 15.1929H35.7316C35.0323 14.1328 34.0494 13.6021 32.7833 13.6021C31.7554 13.6021 30.8998 13.9587 30.2152 14.6705C29.5311 15.3823 29.1873 16.2612 29.1873 17.3072C29.1873 18.3532 29.5332 19.2133 30.2257 19.9322C30.9183 20.6523 31.7705 21.0112 32.7833 21.0112C34.0343 21.0112 35.0021 20.4958 35.6866 19.4663H38.0765C37.6744 20.5723 36.9898 21.4665 36.022 22.1477C35.0542 22.829 33.9675 23.1702 32.7614 23.1702V23.1678Z" fill="white" fill-opacity="0.6"/>
<path d="M41.3448 13.1559C42.4685 12.0123 43.8271 11.4404 45.4202 11.4404C47.0137 11.4404 48.3724 12.0123 49.4961 13.1559C50.6198 14.2996 51.1816 15.6821 51.1816 17.3034C51.1816 18.9247 50.6198 20.3072 49.4961 21.4509C48.3724 22.5945 47.0137 23.1663 45.4202 23.1663C43.8271 23.1663 42.4685 22.5945 41.3448 21.4509C40.2207 20.3072 39.6588 18.9247 39.6588 17.3034C39.6588 15.6821 40.2207 14.2996 41.3448 13.1559ZM45.4433 13.5995C44.4154 13.5995 43.5598 13.956 42.8753 14.6678C42.1911 15.3797 41.8474 16.2586 41.8474 17.3045C41.8474 18.3505 42.1932 19.2106 42.8858 19.9295C43.5783 20.6496 44.4306 21.0085 45.4433 21.0085C46.4565 21.0085 47.3003 20.6531 47.9778 19.9401C48.6556 19.2283 48.9943 18.3494 48.9943 17.3034C48.9943 16.2574 48.6556 15.3797 47.9778 14.6666C47.3003 13.9548 46.4552 13.5983 45.4433 13.5983V13.5995Z" fill="white" fill-opacity="0.6"/>
<path d="M53.7505 10.0535C53.3631 10.0535 53.0429 9.92054 52.7895 9.65584C52.5365 9.39109 52.4104 9.0687 52.4104 8.68986C52.4104 8.31097 52.5365 7.98978 52.7895 7.72387C53.0429 7.45912 53.3631 7.32617 53.7505 7.32617C54.1376 7.32617 54.4347 7.45912 54.6881 7.72387C54.9415 7.98858 55.0675 8.31097 55.0675 8.68986C55.0675 9.0687 54.9402 9.39109 54.6881 9.65584C54.4347 9.92054 54.1216 10.0535 53.7505 10.0535ZM52.6567 22.9855V11.6219H54.8452V22.9855H52.6567Z" fill="white" fill-opacity="0.6"/>
<path d="M64.2694 22.9863V17.0092C64.2694 14.736 63.3608 13.6006 61.5442 13.6006C59.7279 13.6006 58.819 14.7372 58.819 17.0092V22.9863H56.6304V17.0092C56.6304 15.1608 57.0767 13.7701 57.9705 12.8382C58.8639 11.9063 60.0549 11.4404 61.5442 11.4404C63.0335 11.4404 64.2244 11.9063 65.1182 12.8382C66.0121 13.7701 66.4584 15.1608 66.4584 17.0092V22.9863H64.2694Z" fill="white" fill-opacity="0.6"/>
<path d="M81.6458 11.6221H83.8797L80.1947 22.9856H78.0061L75.5049 15.0083L73.0041 22.9856H70.8155L67.1305 11.6221H69.3645L71.9102 20.0535L74.4115 11.6221H76.6L79.1008 20.0535L81.647 11.6221H81.6458Z" fill="white" fill-opacity="0.6"/>
<path d="M85.4976 21.4624C84.3891 20.3258 83.8339 18.948 83.8339 17.3254C83.8339 15.703 84.3811 14.3181 85.4758 13.1662C86.5696 12.0155 87.9131 11.439 89.5075 11.439C91.1019 11.439 92.3521 11.9579 93.4829 12.9956C94.6146 14.0333 95.2101 15.4017 95.2689 17.0984C95.2689 17.4772 95.247 17.8185 95.2021 18.1208H86.1788C86.2679 18.9692 86.6218 19.6622 87.2391 20.1999C87.8564 20.7376 88.6128 21.007 89.5067 21.007C90.6085 21.007 91.5011 20.6281 92.1865 19.8704L94.7995 19.8928C94.3083 20.8776 93.5939 21.6694 92.6559 22.2683C91.7183 22.8672 90.6905 23.1661 89.5735 23.1661C87.9652 23.1661 86.6066 22.5978 85.4976 21.4612V21.4624ZM86.1788 16.303H92.9232C92.7151 15.5159 92.3012 14.8676 91.6835 14.3593C91.0649 13.8521 90.3623 13.598 89.5735 13.598C88.725 13.598 87.9989 13.8474 87.3963 14.3475C86.7928 14.8476 86.3868 15.4994 86.1788 16.3018V16.303Z" fill="white" fill-opacity="0.6"/>
<path d="M96.4973 17.3031V7.07617H98.7077V13.0768C99.6154 11.9861 100.793 11.4402 102.237 11.4402C103.83 11.4402 105.189 12.012 106.312 13.1556C107.436 14.2993 107.998 15.6818 107.998 17.3031C107.998 18.9245 107.436 20.307 106.312 21.4506C105.189 22.5943 103.83 23.1661 102.237 23.1661C100.643 23.1661 99.2885 22.5943 98.1715 21.4506C97.0545 20.307 96.496 18.9245 96.496 17.3031H96.4973ZM102.237 13.598C101.239 13.598 100.394 13.9581 99.7024 14.6781C99.0099 15.3982 98.664 16.2724 98.664 17.3031C98.664 18.3338 99.0061 19.228 99.6906 19.9399C100.375 20.6517 101.224 21.0082 102.237 21.0082C103.25 21.0082 104.117 20.6529 104.794 19.9399C105.472 19.228 105.811 18.3491 105.811 17.3031C105.811 16.2571 105.468 15.3794 104.784 14.6664C104.099 13.9545 103.25 13.598 102.238 13.598H102.237Z" fill="white" fill-opacity="0.6"/>
</g>
<path d="M36.7059 41.7565C36.5656 41.8925 36.5011 42.0891 36.5331 42.2819L37.0146 44.9469C37.0552 45.1728 36.9599 45.4014 36.7709 45.5319C36.5856 45.6673 36.3391 45.6836 36.1371 45.5753L33.7381 44.324C33.6546 44.2796 33.562 44.2558 33.4672 44.253H33.3204C33.2695 44.2606 33.2197 44.2769 33.1742 44.3018L30.7746 45.559C30.656 45.6186 30.5216 45.6397 30.39 45.6186C30.0694 45.5579 29.8554 45.2524 29.9079 44.9301L30.39 42.2651C30.422 42.0707 30.3575 41.873 30.2172 41.7348L28.2613 39.839C28.0977 39.6803 28.0408 39.442 28.1156 39.2269C28.1881 39.0124 28.3734 38.8559 28.5971 38.8207L31.2892 38.4301C31.4939 38.409 31.6738 38.2844 31.7659 38.1003L32.9521 35.6682C32.9803 35.614 33.0166 35.5642 33.0604 35.5219L33.1092 35.484C33.1346 35.4558 33.1639 35.4325 33.1964 35.4136L33.2554 35.3919L33.3475 35.354H33.5756C33.7792 35.3751 33.9585 35.497 34.0522 35.679L35.2542 38.1003C35.3409 38.2774 35.5093 38.4003 35.7038 38.4301L38.3959 38.8207C38.6234 38.8532 38.8135 39.0103 38.8888 39.2269C38.9597 39.4441 38.8985 39.6825 38.7317 39.839L36.7059 41.7565Z" fill="#FAB915"/>
<path d="M49.7059 41.7565C49.5656 41.8925 49.5011 42.0891 49.5331 42.2819L50.0146 44.9469C50.0552 45.1728 49.9599 45.4014 49.7709 45.5319C49.5856 45.6673 49.3391 45.6836 49.1371 45.5753L46.7381 44.324C46.6546 44.2796 46.562 44.2558 46.4672 44.253H46.3204C46.2695 44.2606 46.2197 44.2769 46.1742 44.3018L43.7746 45.559C43.656 45.6186 43.5216 45.6397 43.39 45.6186C43.0694 45.5579 42.8554 45.2524 42.9079 44.9301L43.39 42.2651C43.422 42.0707 43.3575 41.873 43.2172 41.7348L41.2613 39.839C41.0977 39.6803 41.0408 39.442 41.1156 39.2269C41.1881 39.0124 41.3734 38.8559 41.5971 38.8207L44.2892 38.4301C44.4939 38.409 44.6738 38.2844 44.7659 38.1003L45.9521 35.6682C45.9803 35.614 46.0166 35.5642 46.0604 35.5219L46.1092 35.484C46.1346 35.4558 46.1639 35.4325 46.1964 35.4136L46.2554 35.3919L46.3475 35.354H46.5756C46.7792 35.3751 46.9585 35.497 47.0522 35.679L48.2542 38.1003C48.3409 38.2774 48.5093 38.4003 48.7038 38.4301L51.3959 38.8207C51.6234 38.8532 51.8135 39.0103 51.8888 39.2269C51.9597 39.4441 51.8985 39.6825 51.7317 39.839L49.7059 41.7565Z" fill="#FAB915"/>
<path d="M62.7059 41.7565C62.5656 41.8925 62.5011 42.0891 62.5331 42.2819L63.0146 44.9469C63.0552 45.1728 62.9599 45.4014 62.7709 45.5319C62.5856 45.6673 62.3391 45.6836 62.1371 45.5753L59.7381 44.324C59.6546 44.2796 59.562 44.2558 59.4672 44.253H59.3204C59.2695 44.2606 59.2197 44.2769 59.1742 44.3018L56.7746 45.559C56.656 45.6186 56.5216 45.6397 56.39 45.6186C56.0694 45.5579 55.8554 45.2524 55.9079 44.9301L56.39 42.2651C56.422 42.0707 56.3575 41.873 56.2172 41.7348L54.2613 39.839C54.0977 39.6803 54.0408 39.442 54.1156 39.2269C54.1881 39.0124 54.3734 38.8559 54.5971 38.8207L57.2892 38.4301C57.4939 38.409 57.6738 38.2844 57.7659 38.1003L58.9521 35.6682C58.9803 35.614 59.0166 35.5642 59.0604 35.5219L59.1092 35.484C59.1346 35.4558 59.1639 35.4325 59.1964 35.4136L59.2554 35.3919L59.3475 35.354H59.5756C59.7792 35.3751 59.9585 35.497 60.0522 35.679L61.2542 38.1003C61.3409 38.2774 61.5093 38.4003 61.7038 38.4301L64.3959 38.8207C64.6234 38.8532 64.8135 39.0103 64.8888 39.2269C64.9597 39.4441 64.8985 39.6825 64.7317 39.839L62.7059 41.7565Z" fill="#FAB915"/>
<path d="M75.7059 41.7565C75.5656 41.8925 75.5011 42.0891 75.5331 42.2819L76.0146 44.9469C76.0552 45.1728 75.9599 45.4014 75.7709 45.5319C75.5856 45.6673 75.3391 45.6836 75.1371 45.5753L72.7381 44.324C72.6546 44.2796 72.562 44.2558 72.4672 44.253H72.3204C72.2695 44.2606 72.2197 44.2769 72.1742 44.3018L69.7746 45.559C69.656 45.6186 69.5216 45.6397 69.39 45.6186C69.0694 45.5579 68.8554 45.2524 68.9079 44.9301L69.39 42.2651C69.422 42.0707 69.3575 41.873 69.2172 41.7348L67.2613 39.839C67.0977 39.6803 67.0408 39.442 67.1156 39.2269C67.1881 39.0124 67.3734 38.8559 67.5971 38.8207L70.2892 38.4301C70.4939 38.409 70.6738 38.2844 70.7659 38.1003L71.9521 35.6682C71.9803 35.614 72.0166 35.5642 72.0604 35.5219L72.1092 35.484C72.1346 35.4558 72.1639 35.4325 72.1964 35.4136L72.2554 35.3919L72.3475 35.354H72.5756C72.7792 35.3751 72.9585 35.497 73.0522 35.679L74.2542 38.1003C74.3409 38.2774 74.5093 38.4003 74.7038 38.4301L77.3959 38.8207C77.6234 38.8532 77.8135 39.0103 77.8888 39.2269C77.9597 39.4441 77.8985 39.6825 77.7317 39.839L75.7059 41.7565Z" fill="#FAB915"/>
<path d="M88.7057 41.7565C88.5654 41.8925 88.5009 42.0891 88.5329 42.2819L89.0144 44.9469C89.055 45.1728 88.9597 45.4014 88.7707 45.5319C88.5854 45.6673 88.339 45.6836 88.1369 45.5753L85.7379 44.324C85.6545 44.2796 85.5618 44.2558 85.467 44.253H85.3203C85.2693 44.2606 85.2195 44.2769 85.174 44.3018L82.7744 45.559C82.6558 45.6186 82.5215 45.6397 82.3898 45.6186C82.0692 45.5579 81.8552 45.2524 81.9078 44.9301L82.3898 42.2651C82.4218 42.0707 82.3573 41.873 82.217 41.7348L80.2611 39.839C80.0975 39.6803 80.0406 39.442 80.1154 39.2269C80.188 39.0124 80.3732 38.8559 80.5969 38.8207L83.289 38.4301C83.4938 38.409 83.6736 38.2844 83.7657 38.1003L84.9519 35.6682C84.9801 35.614 85.0164 35.5642 85.0603 35.5219L85.109 35.484C85.1345 35.4558 85.1637 35.4325 85.1962 35.4136L85.2553 35.3919L85.3473 35.354H85.5754C85.779 35.3751 85.9583 35.497 86.052 35.679L87.254 38.1003C87.3407 38.2774 87.5091 38.4003 87.7036 38.4301L90.3957 38.8207C90.6232 38.8532 90.8133 39.0103 90.8886 39.2269C90.9595 39.4441 90.8983 39.6825 90.7315 39.839L88.7057 41.7565Z" fill="white"/>
<g clip-path="url(#clip0_5050_48318)">
<path d="M88.7057 41.7565C88.5654 41.8925 88.5009 42.0891 88.5329 42.2819L89.0144 44.9469C89.055 45.1728 88.9597 45.4014 88.7707 45.5319C88.5854 45.6673 88.339 45.6836 88.1369 45.5753L85.7379 44.324C85.6545 44.2796 85.5618 44.2558 85.467 44.253H85.3203C85.2693 44.2606 85.2195 44.2769 85.174 44.3018L82.7744 45.559C82.6558 45.6186 82.5215 45.6397 82.3898 45.6186C82.0692 45.5579 81.8552 45.2524 81.9078 44.9301L82.3898 42.2651C82.4218 42.0707 82.3573 41.873 82.217 41.7348L80.2611 39.839C80.0975 39.6803 80.0406 39.442 80.1154 39.2269C80.188 39.0124 80.3732 38.8559 80.5969 38.8207L83.289 38.4301C83.4938 38.409 83.6736 38.2844 83.7657 38.1003L84.9519 35.6682C84.9801 35.614 85.0164 35.5642 85.0603 35.5219L85.109 35.484C85.1345 35.4558 85.1637 35.4325 85.1962 35.4136L85.2553 35.3919L85.3473 35.354H85.5754C85.779 35.3751 85.9583 35.497 86.052 35.679L87.254 38.1003C87.3407 38.2774 87.5091 38.4003 87.7036 38.4301L90.3957 38.8207C90.6232 38.8532 90.8133 39.0103 90.8886 39.2269C90.9595 39.4441 90.8983 39.6825 90.7315 39.839L88.7057 41.7565Z" fill="#FAB915"/>
</g>
<defs>
<clipPath id="clip0_5050_48318">
<rect width="6" height="11" fill="white" transform="translate(79.9999 35)"/>
</clipPath>
</defs>
</svg>
