<svg width="32" height="32" viewBox="0 0 32 32" fill="none" xmlns="http://www.w3.org/2000/svg">
<path d="M0.846897 10.0333C1.33368 5.04792 5.31806 1.17702 10.3175 0.77696C12.3315 0.615794 14.3889 0.5 16.1381 0.5C17.8062 0.5 19.7546 0.605291 21.6787 0.754869C26.8047 1.15334 30.8446 5.20251 31.2405 10.3297C31.3924 12.2968 31.5 14.2936 31.5 16C31.5 17.7007 31.3931 19.69 31.242 21.6509C30.8462 26.7866 26.7941 30.8388 21.6583 31.2383C19.6883 31.3915 17.6935 31.5 16 31.5C14.2759 31.5 12.2653 31.3875 10.2968 31.23C5.30742 30.8306 1.33566 26.9629 0.848804 21.9862C0.646457 19.9178 0.5 17.7977 0.5 16C0.5 14.208 0.645534 12.0956 0.846897 10.0333Z" fill="white" stroke="#EBEEF2"/>
<path fill-rule="evenodd" clip-rule="evenodd" d="M10.6153 20.4697C10.2335 20.2261 10 19.7921 10 19.3261V16.7238C10 16.6241 10.0256 16.528 10.0733 16.4427C10.2216 16.1759 10.5505 16.0852 10.8061 16.2417L16.4337 19.6658C16.7626 19.8667 16.9656 20.2332 16.9656 20.6316V23.3283C16.9656 23.451 16.9331 23.5736 16.8717 23.6787C16.686 23.9952 16.2906 24.0949 15.9872 23.901L10.6153 20.4697ZM19.0039 15.5284C19.3328 15.7294 19.5356 16.0959 19.5356 16.4943V21.9658C19.5356 22.1277 19.452 22.277 19.3174 22.3552L18.0853 23.0791C18.0699 23.0881 18.0528 23.0952 18.0358 23.1006V20.0625C18.0358 19.6694 17.8381 19.3047 17.5143 19.1019L12.5718 16.0158V12.5864C12.5718 12.4868 12.5974 12.3907 12.6451 12.3054C12.7934 12.0385 13.1223 11.9478 13.3779 12.1044L19.0039 15.5284ZM21.4666 11.4871C21.7972 11.6864 22 12.0563 22 12.4548V20.4467C22 20.6103 21.9131 20.7615 21.775 20.8398L20.6076 21.4979V15.934C20.6076 15.5409 20.4098 15.178 20.0878 14.9752L15.0362 11.8126V8.55932C15.0362 8.45971 15.0618 8.36365 15.1078 8.27828C15.2561 8.01147 15.585 7.92076 15.8407 8.0755L21.4666 11.4871Z" fill="#00D395"/>
</svg>
