<svg width="32" height="32" viewBox="0 0 32 32" fill="none" xmlns="http://www.w3.org/2000/svg">
<g clip-path="url(#clip0_12512_1798)">
<path d="M0.846897 10.0333C1.33368 5.04792 5.31806 1.17702 10.3175 0.77696C12.3315 0.615794 14.3889 0.5 16.1381 0.5C17.8062 0.5 19.7546 0.605291 21.6787 0.754869C26.8047 1.15334 30.8446 5.20251 31.2405 10.3297C31.3924 12.2968 31.5 14.2936 31.5 16C31.5 17.7007 31.3931 19.69 31.242 21.6509C30.8462 26.7866 26.7941 30.8388 21.6583 31.2383C19.6883 31.3915 17.6935 31.5 16 31.5C14.2759 31.5 12.2653 31.3875 10.2968 31.23C5.30742 30.8306 1.33566 26.9629 0.848804 21.9862C0.646457 19.9178 0.5 17.7977 0.5 16C0.5 14.208 0.645534 12.0956 0.846897 10.0333Z" fill="white" stroke="#EBEEF2"/>
<path d="M16 27C22.0751 27 27 22.0751 27 16C27 9.92487 22.0751 5 16 5C9.92487 5 5 9.92487 5 16C5 22.0751 9.92487 27 16 27Z" fill="#9C3BE8"/>
<path fill-rule="evenodd" clip-rule="evenodd" d="M24.2513 16.2454C24.2496 16.3011 24.1737 16.3159 24.1517 16.2645C24.1423 16.2423 24.1327 16.22 24.1229 16.1978C24.105 16.1571 24.11 16.1097 24.1368 16.0741C24.1423 16.0668 24.1535 16.0521 24.167 16.0345C24.2031 15.9873 24.2551 15.9944 24.2551 16.0467C24.2551 16.1155 24.2535 16.175 24.2513 16.2454ZM23.8518 15.1543C23.7902 15.2651 23.6325 15.2702 23.5642 15.1633C23.5536 15.1468 23.5429 15.1303 23.5321 15.1137C23.2859 14.7357 23.0025 14.3645 22.686 14.0039C22.6083 13.9153 22.6719 13.7763 22.7897 13.7763H22.7926C23.5321 13.7763 23.9198 13.9589 24.0382 14.182C24.1369 14.3686 24.1066 14.6949 23.8518 15.1543ZM23.6865 19.0218C23.6468 19.1228 23.6053 19.223 23.5617 19.3224C23.5549 19.336 23.5485 19.3499 23.5414 19.3635C23.2692 19.8874 22.8125 20.3 22.2021 20.5871C22.0651 20.6514 21.9153 20.5261 21.9561 20.3804C22.1588 19.655 22.3122 18.8684 22.4116 18.0436C22.4301 17.8899 22.506 17.7487 22.6232 17.6474C22.8742 17.4302 23.1086 17.2134 23.3242 16.998L23.3265 16.9956C23.4326 16.8897 23.6136 16.9353 23.6569 17.0789C23.8699 17.7871 23.8817 18.4467 23.6865 19.0218ZM22.0273 21.6408C21.9653 21.7071 21.9019 21.7727 21.8373 21.8373C21.7248 21.9496 21.6096 22.0583 21.4919 22.1633C21.4177 22.2295 21.3054 22.1467 21.3474 22.0566C21.3594 22.0308 21.3713 22.0049 21.3831 21.9788C21.4326 21.8698 21.4803 21.7579 21.5268 21.6439C21.5378 21.6171 21.561 21.597 21.5891 21.5898C21.7062 21.5601 21.8203 21.5273 21.9314 21.4914C22.0215 21.4625 22.0921 21.5716 22.0273 21.6408ZM20.8089 20.986C20.5625 21.0216 20.3035 21.0447 20.0324 21.0543C19.371 21.0774 18.6717 21.0204 17.9533 20.8881C17.8657 20.872 17.8489 20.7536 17.9283 20.7134C18.085 20.6341 18.2418 20.553 18.3985 20.4699C19.4977 19.8873 20.5233 19.2505 21.4211 18.5975C21.4884 18.5486 21.5812 18.6064 21.5675 18.6885C21.443 19.4368 21.2706 20.1412 21.0541 20.7807C21.0172 20.8896 20.9228 20.9694 20.8089 20.986ZM20.5549 21.9829C19.9655 23.142 19.2397 23.7928 18.5362 23.7796C17.7715 23.766 17.0091 22.9697 16.4444 21.5951L16.4438 21.5936C16.4079 21.5063 16.4491 21.4064 16.5355 21.3689C16.5415 21.3662 16.5475 21.3636 16.5535 21.361C16.5906 21.3448 16.6322 21.3419 16.6712 21.3529C17.7274 21.6493 18.7681 21.804 19.7431 21.804C19.849 21.804 19.9543 21.8022 20.0586 21.7986C20.1807 21.7942 20.3009 21.7874 20.419 21.778C20.5286 21.7693 20.6047 21.885 20.5549 21.9829ZM17.065 24.1871C16.7146 24.2321 16.359 24.2552 16 24.2552C14.3954 24.2552 12.8606 23.8004 11.543 22.9519C11.4523 22.8935 11.4909 22.7528 11.5986 22.7479C11.6209 22.7468 11.6418 22.7457 11.6602 22.7446C11.9951 22.7228 12.3622 22.6737 12.76 22.5971C13.6063 22.4343 14.547 22.1551 15.532 21.779C15.6203 21.7453 15.7188 21.7891 15.7548 21.8765L15.7554 21.8781C16.1372 22.8075 16.6069 23.5097 17.1344 23.9564C17.2216 24.0303 17.1783 24.1725 17.065 24.1871ZM12.2911 18.403C13.0186 17.8107 13.8709 17.2197 14.8058 16.6601C14.8259 17.8559 14.957 19.004 15.1891 20.041C14.8423 19.8932 14.4966 19.7303 14.1539 19.5523C13.4901 19.2073 12.8656 18.8209 12.2911 18.403ZM10.0289 21.6072C9.85537 21.2798 10.0797 20.5213 11.2191 19.3687L11.2196 19.3681C11.3386 19.2479 11.3272 19.0506 11.1944 18.946C11.1487 18.9101 11.1034 18.8739 11.0584 18.8376C10.9449 18.7459 10.7807 18.7543 10.6777 18.8575C10.6551 18.8801 10.6382 18.8971 10.6333 18.9022C10.0637 19.4868 9.66508 20.028 9.44176 20.5148C9.37846 20.6527 9.18728 20.6676 9.10359 20.541C8.21963 19.2048 7.74482 17.6389 7.74482 16C7.74482 15.414 7.80569 14.8374 7.92411 14.2773C7.942 14.1925 8.06155 14.1871 8.08664 14.27C8.25791 14.8355 8.53667 15.4203 8.92187 16.0118C9.44038 16.8081 10.1242 17.5735 10.9345 18.2757C11.2111 18.5154 11.5032 18.7472 11.8078 18.9708C12.4254 19.424 13.0965 19.8422 13.8105 20.2132C14.127 20.3777 14.4352 20.5346 14.7509 20.6768C14.9266 20.7558 15.1266 20.762 15.306 20.6916C15.4548 20.6333 15.6047 20.5727 15.7555 20.5096C15.9195 20.4412 16.0085 20.2624 15.965 20.0901C15.9596 20.0686 15.9553 20.0512 15.9529 20.041C15.7043 18.995 15.5661 17.8173 15.5498 16.5839L15.5494 16.5841C15.5492 16.5695 15.5493 16.5546 15.5491 16.5398C15.5484 16.4723 15.5488 16.4044 15.5476 16.3372C15.5472 16.3157 15.5478 16.2794 15.5481 16.2578C15.5482 16.2493 15.5481 16.2408 15.5481 16.2323L15.5484 16.2322C15.5488 16.155 15.5494 16.0778 15.5507 16.0004C15.5545 15.7888 15.5621 15.5787 15.5731 15.3704L15.5727 15.3706C15.6493 13.8822 15.9017 12.4836 16.3032 11.3071C16.3404 11.1983 16.2824 11.0801 16.1735 11.0429C16.0674 11.0067 15.9613 10.972 15.8555 10.9389C15.7484 10.9053 15.6339 10.9631 15.5978 11.0693C15.1625 12.347 14.894 13.8628 14.8223 15.4668C14.8132 15.6703 14.7025 15.8555 14.5272 15.9593C13.5772 16.5224 12.7048 17.1192 11.951 17.7209C11.794 17.8462 11.5697 17.8415 11.4179 17.7098C10.6624 17.0548 10.0266 16.3434 9.54601 15.6053C8.60151 14.155 8.37706 12.7887 8.91418 11.7588C8.91564 11.7564 8.91694 11.7539 8.91831 11.7515C8.98679 11.6379 9.05802 11.5258 9.13216 11.4152C9.74934 10.5983 10.8981 10.1248 12.4215 10.0713C12.5179 10.0679 12.615 10.0662 12.7129 10.0662C13.6474 10.0662 14.6503 10.2204 15.6702 10.5147L15.6704 10.5145C15.6928 10.521 15.7151 10.5277 15.7375 10.5342C15.7547 10.5393 15.7719 10.5441 15.7892 10.5493C16.0249 10.6197 16.2612 10.6978 16.4979 10.783C16.5034 10.7849 16.509 10.7869 16.5145 10.7889C16.5762 10.8111 16.6378 10.834 16.6994 10.8572C16.7186 10.8645 16.738 10.8718 16.7572 10.8793C16.7758 10.8864 16.7943 10.8933 16.8129 10.9005L16.8127 10.9008C17.3108 11.0936 17.8085 11.3178 18.3 11.5733C19.2513 12.0675 20.1221 12.6469 20.8798 13.2825C19.4337 13.6138 17.7527 14.2529 16.0625 15.1146C15.9846 15.1544 15.9333 15.2328 15.9283 15.3202C15.9224 15.425 15.9146 15.6356 15.9091 15.8029C15.9056 15.908 16.0167 15.9776 16.1098 15.9287L16.1108 15.9282C17.7842 15.0495 19.4542 14.3927 20.8884 14.0456C21.1565 13.9808 21.33 13.7233 21.2924 13.4501C21.266 13.2593 21.2363 13.0714 21.2034 12.8869C21.1622 12.6551 21.0352 12.4478 20.8479 12.3051C20.1762 11.7934 19.4359 11.3241 18.6434 10.9122C18.1094 10.6348 17.5675 10.3916 17.0244 10.1842C16.9083 10.1399 16.8585 10.0026 16.9191 9.89406C17.4786 8.89322 18.144 8.3327 18.7923 8.3327C18.799 8.3327 18.8057 8.3327 18.8124 8.33286C19.5771 8.34654 20.3396 9.14276 20.9042 10.5174C21.19 11.2132 21.4115 12.0157 21.5628 12.8878C21.562 12.887 21.5612 12.8864 21.5605 12.8857C21.6251 13.2578 21.6771 13.6425 21.7157 14.037C21.7124 14.0392 21.7088 14.041 21.7055 14.0431C21.7101 14.0477 21.7148 14.0523 21.7194 14.057C21.7835 14.7191 21.8105 15.4086 21.7979 16.1121C21.7899 16.5572 21.7662 16.996 21.7279 17.4254C20.7048 18.2522 19.44 19.0749 18.0496 19.8117C17.5927 20.0539 17.1359 20.2793 16.6835 20.4869C16.6765 20.4901 16.6695 20.4933 16.6625 20.4965C16.6279 20.5123 16.5933 20.5283 16.5587 20.5439L16.5579 20.5437C16.183 20.7133 15.8118 20.8701 15.4466 21.0134L15.4468 21.0137C15.4262 21.0218 15.4057 21.0296 15.3851 21.0376C15.3595 21.0476 15.3338 21.0575 15.3082 21.0674C15.247 21.0909 15.1859 21.114 15.1251 21.1367C15.1083 21.143 15.0915 21.1495 15.0747 21.1557C15.0008 21.1831 14.9273 21.2098 14.8541 21.236C14.8449 21.2392 14.8358 21.2427 14.8267 21.2459L14.8264 21.2458C14.0439 21.5245 13.2985 21.735 12.6193 21.8657C10.9779 22.1817 10.205 21.9393 10.0289 21.6072ZM11.2078 9.27648C12.5971 8.28163 14.2572 7.74482 16 7.74482C16.4599 7.74482 16.914 7.78246 17.359 7.85587C17.4781 7.87554 17.5181 8.02763 17.4231 8.10218C16.9919 8.44019 16.5913 8.94033 16.2368 9.58891C16.1503 9.74715 15.9668 9.82453 15.7932 9.77564C14.6187 9.445 13.4631 9.28943 12.3954 9.3269C12.0015 9.34075 11.6286 9.38065 11.2782 9.44524C11.1797 9.46337 11.1265 9.33467 11.2078 9.27648ZM22.5395 15.2929C22.537 15.1982 22.6584 15.1578 22.7133 15.2349C22.7807 15.3295 22.8457 15.4246 22.908 15.5202C22.9907 15.6473 23.0677 15.7736 23.1392 15.8992C23.1838 15.9775 23.1732 16.0756 23.1124 16.1422C23.016 16.248 22.9115 16.3575 22.7979 16.471C22.7565 16.5123 22.7142 16.5538 22.6712 16.5953C22.6177 16.6469 22.5281 16.6076 22.531 16.5333C22.5363 16.3979 22.5402 16.262 22.5426 16.1254C22.5476 15.8457 22.5464 15.568 22.5395 15.2929ZM21.6833 10.0127C21.7352 10.0619 21.7865 10.112 21.8373 10.1627C22.6328 10.9582 23.2455 11.8877 23.6552 12.9001C23.6966 13.0021 23.6099 13.109 23.5015 13.0895C23.2645 13.0469 22.9977 13.0279 22.7023 13.0328C22.4976 13.0362 22.3197 12.8928 22.2838 12.6912C22.1233 11.7912 21.8912 10.9599 21.5932 10.2343C21.5762 10.193 21.559 10.1521 21.5416 10.1116C21.5037 10.0233 21.6137 9.94651 21.6833 10.0127ZM24.8056 14.1281C24.4499 12.4383 23.6136 10.8857 22.3639 9.63594C20.664 7.93609 18.404 7 16 7C13.596 7 11.3359 7.93609 9.63602 9.63594C9.22257 10.0494 8.85485 10.4961 8.53424 10.9698C8.4389 11.0967 8.3535 11.2307 8.27758 11.371C7.44477 12.7549 7 14.3432 7 16C7 18.404 7.93617 20.664 9.63602 22.3639C11.3359 24.0637 13.596 25 16 25C18.404 25 20.664 24.0637 22.3639 22.3639C23.1662 21.5617 23.7981 20.6346 24.242 19.6265C24.2962 19.5148 24.3436 19.4005 24.3843 19.2838C24.7883 18.2513 25 17.142 25 16C25 15.3714 24.9354 14.7529 24.8105 14.1514C24.8088 14.1436 24.8073 14.1359 24.8056 14.1281Z" fill="white"/>
</g>
<defs>
<clipPath id="clip0_12512_1798">
<rect width="32" height="32" fill="white"/>
</clipPath>
</defs>
</svg>
