<svg width="32" height="32" viewBox="0 0 32 32" fill="none" xmlns="http://www.w3.org/2000/svg">
<path d="M0.846897 10.0333C1.33368 5.04792 5.31806 1.17702 10.3175 0.77696C12.3315 0.615794 14.3889 0.5 16.1381 0.5C17.8062 0.5 19.7546 0.605291 21.6787 0.754869C26.8047 1.15334 30.8446 5.20251 31.2405 10.3297C31.3924 12.2968 31.5 14.2936 31.5 16C31.5 17.7007 31.3931 19.69 31.242 21.6509C30.8462 26.7866 26.7941 30.8388 21.6583 31.2383C19.6883 31.3915 17.6935 31.5 16 31.5C14.2759 31.5 12.2653 31.3875 10.2968 31.23C5.30742 30.8306 1.33566 26.9629 0.848804 21.9862C0.646457 19.9178 0.5 17.7977 0.5 16C0.5 14.208 0.645534 12.0956 0.846897 10.0333Z" fill="white" stroke="#EBEEF2"/>
<path d="M16 27C22.0751 27 27 22.0751 27 16C27 9.92487 22.0751 5 16 5C9.92487 5 5 9.92487 5 16C5 22.0751 9.92487 27 16 27Z" fill="#211C28"/>
<path d="M18.8024 19.4258C18.2868 20.3853 17.2651 21.0397 16.0869 21.0397C14.3905 21.0397 13.0153 19.684 13.0153 18.0118C13.0153 16.3395 14.3905 14.9839 16.0869 14.9839C17.2651 14.9839 18.2868 15.6383 18.8024 16.5977H22C21.3585 13.9617 18.9581 12 16.0869 12C12.7252 12 10 14.6864 10 18C10 21.3138 12.7252 24 16.0869 24C18.9494 24 21.3438 22.0499 21.9939 19.4258H18.8024Z" fill="#FFB0C2"/>
<circle cx="19" cy="11" r="3" fill="#CC91F0"/>
<path d="M20.3209 13.6943C19.9223 13.8901 19.474 14 19 14C17.694 14 16.5829 13.1654 16.1709 12.0005C17.785 12.0221 19.2454 12.6637 20.3209 13.6943Z" fill="#CC66B8"/>
</svg>
