<svg width="32" height="32" viewBox="0 0 32 32" fill="none" xmlns="http://www.w3.org/2000/svg">
<path d="M10.3175 0.77696C12.3315 0.615794 14.3889 0.5 16.1381 0.5C17.8062 0.5 19.7546 0.605291 21.6787 0.754869C26.8047 1.15334 30.8446 5.20251 31.2405 10.3297C31.3924 12.2968 31.5 14.2936 31.5 16C31.5 17.7007 31.3931 19.69 31.242 21.6509C30.8462 26.7866 26.7941 30.8388 21.6583 31.2383C19.6883 31.3915 17.6935 31.5 16 31.5C14.2759 31.5 12.2653 31.3875 10.2968 31.23C5.30742 30.8306 1.33566 26.9629 0.848804 21.9862C0.646457 19.9178 0.5 17.7977 0.5 16C0.5 14.208 0.645534 12.0956 0.846897 10.0333C1.33368 5.04792 5.31806 1.17702 10.3175 0.77696Z" fill="white" stroke="#EBEEF2"/>
<path fill-rule="evenodd" clip-rule="evenodd" d="M6.68125 9.4125C6 10.75 6 12.5 6 16C6 19.5 6 21.25 6.68125 22.5875C7.28125 23.7625 8.2375 24.7187 9.4125 25.3187C10.75 26 12.5 26 16 26C19.5 26 21.25 26 22.5875 25.3187C23.7625 24.7187 24.7187 23.7625 25.3187 22.5875C26 21.25 26 19.5 26 16C26 12.5 26 10.75 25.3187 9.4125C24.7187 8.2375 23.7625 7.28125 22.5875 6.68125C21.25 6 19.5 6 16 6C12.5 6 10.75 6 9.4125 6.68125C8.2375 7.28125 7.28125 8.2375 6.68125 9.4125ZM20.9906 11.3937C21.1656 11.3937 21.3313 11.4656 21.4532 11.5875C21.575 11.7125 21.6438 11.8813 21.6406 12.0531C21.6094 13.9156 21.5375 15.3406 21.4032 16.4687C21.2719 17.5969 21.075 18.4344 20.7782 19.1125C20.5782 19.5656 20.3313 19.9406 20.0406 20.2594C19.65 20.6813 19.2032 20.9875 18.7156 21.2782C18.5072 21.4028 18.2905 21.5258 18.0632 21.6549C17.5782 21.9304 17.0449 22.2332 16.4406 22.6375C16.2219 22.7844 15.9375 22.7844 15.7188 22.6375C15.1052 22.2285 14.5649 21.9219 14.0755 21.6443C13.9666 21.5825 13.8603 21.5222 13.7563 21.4625C13.1844 21.1313 12.6688 20.8156 12.2188 20.3594C11.9188 20.0594 11.6594 19.6937 11.4532 19.2594C11.1719 18.6781 10.9813 17.975 10.8407 17.0656C10.6531 15.85 10.5594 14.2594 10.525 12.0531C10.5219 11.8813 10.5875 11.7125 10.7094 11.5875C10.8313 11.4656 11 11.3937 11.175 11.3937H11.4438C12.2719 11.3969 14.1 11.3156 15.6813 10.0844C15.9156 9.90313 16.2438 9.90313 16.4782 10.0844C18.0594 11.3156 19.8875 11.3969 20.7188 11.3937H20.9906ZM19.5375 18.6969C19.7406 18.2781 19.9094 17.7 20.0375 16.8687C20.1906 15.875 20.2844 14.525 20.3282 12.6875C19.3532 12.6594 17.6782 12.4719 16.0813 11.3969C14.4844 12.4687 12.8094 12.6563 11.8375 12.6875C11.8719 14.2063 11.9406 15.3875 12.05 16.3156C12.175 17.3719 12.3532 18.0875 12.575 18.5906C12.7219 18.925 12.8844 19.1656 13.0782 19.3781C13.3375 19.6625 13.6656 19.8969 14.1125 20.1656C14.2979 20.2768 14.5023 20.3925 14.7247 20.5185C15.1211 20.7428 15.5749 20.9996 16.0813 21.3219C16.5783 21.0049 17.0256 20.7507 17.4173 20.528C17.5354 20.4609 17.6484 20.3966 17.7563 20.3344C18.3063 20.0187 18.7125 19.7563 19.0156 19.45C19.2188 19.2406 19.3844 19.0125 19.5375 18.6969Z" fill="#3375BB"/>
</svg>
