<svg width="33" height="33" viewBox="0 0 33 33" fill="none" xmlns="http://www.w3.org/2000/svg">
<path d="M1.54612 10.7745C2.0329 5.78913 6.01728 1.91823 11.0167 1.51817C13.0307 1.357 15.0881 1.24121 16.8374 1.24121C18.5054 1.24121 20.4538 1.3465 22.378 1.49608C27.504 1.89455 31.5438 5.94372 31.9398 11.0709C32.0917 13.038 32.1992 15.0349 32.1992 16.7412C32.1992 18.4419 32.0924 20.4312 31.9412 22.3921C31.5455 27.5278 27.4933 31.58 22.3575 31.9795C20.3875 32.1327 18.3927 32.2412 16.6992 32.2412C14.9751 32.2412 12.9645 32.1287 10.996 31.9712C6.00664 31.5718 2.03487 27.7041 1.54802 22.7274C1.34568 20.659 1.19922 18.5389 1.19922 16.7412C1.19922 14.9492 1.34475 12.8368 1.54612 10.7745Z" fill="white" stroke="#EBEEF2"/>
<path d="M16.6991 27.1961C22.4733 27.1961 27.1541 22.5153 27.1541 16.7411C27.1541 10.967 22.4733 6.28613 16.6991 6.28613C10.925 6.28613 6.24414 10.967 6.24414 16.7411C6.24414 22.5153 10.925 27.1961 16.6991 27.1961Z" fill="url(#paint0_linear)"/>
<path d="M21.8231 21.3986L17.8716 11.8109C17.8038 11.5997 17.6714 11.415 17.4932 11.2829C17.315 11.1508 17.0999 11.0778 16.8781 11.0742H16.5306C16.3094 11.0786 16.0951 11.1519 15.9177 11.284C15.7402 11.4161 15.6085 11.6003 15.5408 11.8109L13.822 15.989H12.5187C12.3313 15.991 12.1522 16.0666 12.02 16.1994C11.8878 16.3323 11.8132 16.5118 11.8122 16.6992V16.7068C11.8132 16.8942 11.8878 17.0737 12.02 17.2065C12.1522 17.3394 12.3313 17.415 12.5187 17.417H13.2175L11.578 21.3986C11.5468 21.486 11.5302 21.5779 11.5289 21.6706C11.5212 21.8665 11.5903 22.0576 11.7216 22.2033C11.7894 22.2728 11.8714 22.327 11.962 22.3622C12.0526 22.3974 12.1496 22.4128 12.2467 22.4073C12.3934 22.4052 12.536 22.3577 12.6546 22.2713C12.7782 22.1787 12.8747 22.0548 12.9342 21.9124L14.7437 17.417H15.9941C16.1822 17.416 16.3622 17.3408 16.4952 17.2078C16.6282 17.0749 16.7033 16.8948 16.7043 16.7068V16.6879C16.7033 16.4998 16.6282 16.3197 16.4952 16.1868C16.3622 16.0538 16.1822 15.9787 15.9941 15.9777H15.3255L16.7043 12.5324L20.4631 21.9124C20.5226 22.0548 20.6192 22.1787 20.7427 22.2713C20.8614 22.3577 21.0039 22.4052 21.1507 22.4073C21.2483 22.4133 21.3461 22.3982 21.4374 22.363C21.5287 22.3278 21.6113 22.2733 21.6795 22.2033C21.8094 22.0571 21.8771 21.866 21.8684 21.6706C21.8732 21.5778 21.8577 21.485 21.8231 21.3986Z" fill="white"/>
<defs>
<linearGradient id="paint0_linear" x1="24.6566" y1="9.16394" x2="8.73009" y2="27.1961" gradientUnits="userSpaceOnUse">
<stop offset="0.0275429" stop-color="#B451A1"/>
<stop offset="1" stop-color="#26B6BF"/>
</linearGradient>
</defs>
</svg>
