<svg width="32" height="32" viewBox="0 0 32 32" fill="none" xmlns="http://www.w3.org/2000/svg">
<g clip-path="url(#clip0_12050_1777)">
<path d="M0.846897 10.0333C1.33368 5.04792 5.31806 1.17702 10.3175 0.77696C12.3315 0.615794 14.3889 0.5 16.1381 0.5C17.8062 0.5 19.7546 0.605291 21.6787 0.754869C26.8047 1.15334 30.8446 5.20251 31.2405 10.3297C31.3924 12.2968 31.5 14.2936 31.5 16C31.5 17.7007 31.3931 19.69 31.242 21.6509C30.8462 26.7866 26.7941 30.8388 21.6583 31.2383C19.6883 31.3915 17.6935 31.5 16 31.5C14.2759 31.5 12.2653 31.3875 10.2968 31.23C5.30742 30.8306 1.33566 26.9629 0.848804 21.9862C0.646457 19.9178 0.5 17.7977 0.5 16C0.5 14.208 0.645534 12.0956 0.846897 10.0333Z" fill="white" stroke="#EBEEF2"/>
<path d="M16 5C22.0742 5 27 9.9258 27 16C27 22.0742 22.0742 27 16 27C9.9258 27 5 22.0742 5 16C5 9.9258 9.9258 5 16 5Z" fill="#121212"/>
<path d="M19.8437 18.4836C19.8437 17.5355 19.4799 16.7571 18.7628 16.1681C18.2326 15.7326 17.4916 15.3759 16.2894 14.9756C14.1256 14.2552 14.1256 13.8403 14.1256 13.5065C14.1256 13.0451 14.7559 12.4057 15.9383 12.4057C16.6384 12.4057 17.8131 12.5966 17.8131 13.877H19.7816C19.7816 13.2735 19.6568 12.7105 19.4206 12.2193L21 10.508L19.6082 9L17.9985 10.7448C17.4147 10.4347 16.716 10.2735 15.939 10.2735C15.2149 10.2735 14.5493 10.4248 13.9754 10.7158L12.3925 9.00076L11.0007 10.5088L12.5025 12.136C12.2783 12.5607 12.1577 13.0298 12.1577 13.5073C12.1577 14.4553 12.5215 15.2338 13.2386 15.8228C13.7688 16.2582 14.5077 16.6142 15.7099 17.0145C17.8737 17.7341 17.8751 18.1505 17.8751 18.4843C17.8751 18.9458 17.2448 19.5852 16.0624 19.5852C15.3623 19.5852 14.1876 19.3942 14.1876 18.1138H12.2191C12.2191 18.7196 12.3446 19.2842 12.5822 19.7769L11 21.4912L12.3918 22.9992L14.0071 21.249C14.5902 21.5577 15.2868 21.7181 16.0617 21.7181C16.7837 21.7181 17.4472 21.5676 18.0197 21.2788L19.6082 23L21 21.492L19.4954 19.8617C19.7217 19.4339 19.8437 18.9641 19.8437 18.4836Z" fill="white"/>
</g>
<defs>
<clipPath id="clip0_12050_1777">
<rect width="32" height="32" fill="white"/>
</clipPath>
</defs>
</svg>
