<svg width="32" height="32" viewBox="0 0 32 32" fill="none" xmlns="http://www.w3.org/2000/svg">
<path d="M0.846897 10.0333C1.33368 5.04792 5.31806 1.17702 10.3175 0.77696C12.3315 0.615794 14.3889 0.5 16.1381 0.5C17.8062 0.5 19.7546 0.605291 21.6787 0.754869C26.8047 1.15334 30.8446 5.20251 31.2405 10.3297C31.3924 12.2968 31.5 14.2936 31.5 16C31.5 17.7007 31.3931 19.69 31.242 21.6509C30.8462 26.7866 26.7941 30.8388 21.6583 31.2383C19.6883 31.3915 17.6935 31.5 16 31.5C14.2759 31.5 12.2653 31.3875 10.2968 31.23C5.30742 30.8306 1.33566 26.9629 0.848804 21.9862C0.646457 19.9178 0.5 17.7977 0.5 16C0.5 14.208 0.645534 12.0956 0.846897 10.0333Z" fill="white" stroke="#EBEEF2"/>
<g clip-path="url(#clip0)">
<path d="M10.635 7.31932C10.635 7.31932 9.28087 7.8043 8.39507 9.36025C7.50927 10.9162 7.31582 11.0981 7.09182 13.2299C6.87801 15.2708 6.92891 17.0693 8.51725 21.6563C9.24015 23.7377 10.6452 25.0814 12.3761 24.8693C13.9033 24.6874 14.8095 22.5757 14.8706 22.2928C14.9419 22.0099 15.1557 21.333 15.1557 21.333C15.1557 21.333 16.9578 20.6258 19.4931 20.0094C21.9876 19.4032 24.3599 19.09 24.757 17.0794C25.205 14.8364 24.8486 13.2299 23.3417 11.6538C21.8348 10.0776 19.3811 8.92579 17.08 8.0872C14.779 7.2486 13.8728 7.11725 12.8648 7.01622C11.8568 6.91518 10.635 7.31932 10.635 7.31932Z" fill="#FFE600"/>
<path d="M21.927 14.1999L21.9983 13.6846L21.8252 14.0887L21.7539 14.5636L21.927 14.1999Z" fill="#E4FF13"/>
<path d="M22.1294 13.8868L22.2109 13.3311L21.9971 13.6847L21.9258 14.2L22.1294 13.8868Z" fill="#F8F500"/>
<path d="M14.0046 19.3229L12.6606 19.6463H12.6504L11.4693 19.9595L10.4919 20.2727L9.70791 20.5657L9.14792 20.8284L8.86284 20.99L8.89338 21.0304L8.96465 21.6266L8.63884 21.1214L8.53703 21.182L8.57775 21.3841L8.73048 21.869L8.42503 21.2426H8.41485L8.37412 21.2224L8.43521 21.4043L8.53703 21.7276L8.35376 21.2224L8.34357 21.2123L8.33339 21.182L8.28248 21.0608L8.25194 20.9597L8.20103 20.8183L8.17049 20.7172L8.13994 20.6364L8.07885 20.4545L7.93631 20.01L7.7734 19.4846L7.63086 18.9087L7.82431 19.4543L7.9974 19.9089L7.92613 19.3027L8.37412 20.2222L8.47594 20.3838L8.58793 20.3434L8.98502 20.1817L9.56537 19.9797L10.3494 19.7372L11.3472 19.4745L12.5486 19.2017L13.9028 18.9087L14.0046 19.3229Z" fill="#16FFE1"/>
<path d="M7.7027 17.8369L7.81469 18.2309L7.87578 19.1908L7.78415 18.8473L7.65179 18.4128L7.48888 17.8975L7.31579 17.3317L7.17325 16.7255L7.0918 15.604L7.23434 16.2304L7.40743 16.8164L7.57033 17.362L7.7027 17.8369Z" fill="#66FF90"/>
<path d="M23.922 14.7249L24.4209 14.1187L24.2172 13.8257L23.7285 14.442L23.922 14.7249Z" fill="#F4F802"/>
<path d="M21.6614 14.4217L22.4453 13.9165L22.1806 14.0175L21.417 14.5126L21.6614 14.4217Z" fill="#FFDE00"/>
<path d="M23.7276 14.4432L22.8927 14.9787L22.6687 14.7463L22.4346 14.5746L23.2491 14.0391L23.4935 14.2108L23.7276 14.4432Z" fill="#FFE600"/>
<path d="M23.2495 14.0383L22.4349 14.5738L22.1906 14.4525L22.1804 14.4626L21.9157 14.4121L21.6611 14.4222L22.4349 13.917L22.7098 13.8867L22.9847 13.9271L23.2495 14.0383Z" fill="#FFD700"/>
<path d="M20.726 14.8361L19.9624 14.533L19.0562 14.2804L18.0889 14.0884V14.0783L17.1319 13.9672L16.2664 13.9268L15.5639 13.9672L15.0446 14.1086V15.0887L15.0039 16.0182L15.5334 15.7858L16.2562 15.6343L17.1319 15.5635L18.0889 15.5736L19.0664 15.6545L19.9827 15.7959L19.9522 15.1695L20.7158 15.4221L20.726 14.8361ZM17.1217 14.7856L16.2664 14.8058L17.1217 14.7755L18.0788 14.8462L17.1217 14.7856Z" fill="#53FFA4"/>
<path d="M20.6944 9.68351L20.501 9.62289L20.3075 9.68351L18.9941 8.99646L17.6094 8.40035L17.6806 8.29932L19.1366 8.92574L19.2792 8.96615L20.6944 9.68351Z" fill="#FF3800"/>
<path d="M20.3075 9.68403L20.1039 9.8558L18.8515 9.20917L17.5381 8.63326L17.6094 8.40088L18.9941 8.99699L20.3075 9.68403Z" fill="#FF3800"/>
<path d="M17.3953 9.4814L17.324 10.0674L16.2651 9.72389L15.3386 9.4814V9.4915L14.575 9.36016H14.0252L13.679 9.4713L13.5263 9.70368L13.0986 8.9055L13.3328 8.68322L13.7604 8.59229L14.4019 8.6327L15.247 8.79436L16.2651 9.07726L17.3953 9.4814Z" fill="#FF5900"/>
<path d="M17.4671 8.99639L17.3959 9.48136L16.2657 9.07722L15.2475 8.79431L14.4025 8.63266L13.761 8.59224L13.3334 8.68318L13.0992 8.90545L12.6309 8.23862L12.9567 8.03655L13.4759 7.96582H13.4861L14.2192 8.02644L15.1559 8.22851L16.2555 8.55183L17.4671 8.99639Z" fill="#FF3B00"/>
<path d="M20.7761 14.2406L20.7252 14.8367L19.9616 14.5336L19.0554 14.281L18.0882 14.0789V14.089L17.1311 13.9678L16.2657 13.9274L15.5631 13.9678L15.0439 14.1093L14.7384 14.3214L14.6875 13.2707L15.0133 13.0989L15.5428 13.0181L16.2758 13.0282L17.1515 13.1292L18.1187 13.3111L19.0962 13.5637H19.1063L20.0125 13.8769L20.7761 14.2406Z" fill="#80FF77"/>
<path d="M21.3273 14.6247L21.2662 15.1601L20.7266 14.8368L20.7877 14.2407L21.3273 14.6247Z" fill="#80FF77"/>
<path d="M23.1483 11.4013L22.9039 11.2295L22.6494 11.1487L22.3847 11.1689L21.4581 10.4111L20.3076 9.68367L20.5011 9.62305L20.6945 9.68367L21.9265 10.4414L22.1403 10.6132L23.1483 11.4013Z" fill="#FF5900"/>
<path d="M19.7267 10.5327L19.5536 11.0076L18.454 10.5024L17.334 10.0679L17.3951 9.48193L18.5761 9.96691L19.7267 10.5327Z" fill="#FF8200"/>
<path d="M20.1038 9.85535L19.9104 10.1382L18.709 9.53203L17.4668 8.99654L17.5381 8.63281L18.8515 9.20872L20.1038 9.85535Z" fill="#FF5900"/>
<path d="M19.9104 10.1383L19.7271 10.5323L18.5766 9.96653L17.3955 9.48155L17.4668 8.99658L18.7089 9.53207L19.9104 10.1383Z" fill="#FF6C00"/>
<path d="M14.4238 12.4314L14.5867 12.2192L14.6784 13.27L14.5664 13.5226L14.4238 12.4314Z" fill="#D4FF23"/>
<path d="M20.1037 13.24L20.8775 13.6644L20.7757 14.2403L20.0121 13.8766V13.8867L19.0957 13.5634L19.1772 12.8662L20.1037 13.24Z" fill="#D4FF23"/>
<path d="M21.6816 14.5438L21.5797 15.0187L21.3252 14.6247L21.427 14.1094L21.6816 14.5438Z" fill="#D4FF23"/>
<path d="M20.8787 13.665L21.4286 14.1096L21.3166 14.6249L20.7871 14.2409L20.8787 13.665Z" fill="#D4FF23"/>
<path d="M19.1677 12.8661L19.0964 13.5632L18.119 13.3106L17.1517 13.1287L16.2761 13.0277L15.543 13.0176L15.0136 13.0984H15.0034L14.6878 13.2702L14.5859 12.2194L14.9423 12.0982H14.9525L15.5125 12.0679L16.2761 12.1285L17.1823 12.3003L18.1699 12.5427L19.1677 12.8661Z" fill="#D4FF23"/>
<path d="M17.3251 10.0676L17.2742 10.7445L16.2764 10.4616L15.4109 10.2697L14.7288 10.1989L14.2502 10.2394L13.9753 10.3808L13.9041 10.6233L14.2197 11.6438L14.3317 11.9974L13.9753 10.9668L13.5375 10.0373L13.5273 9.70387L13.6801 9.47149L14.0262 9.36035H14.5761L15.3397 9.48159L16.2662 9.72408L17.3251 10.0676Z" fill="#FF9100"/>
<path d="M21.3868 12.1588L21.1832 12.6135L20.3788 12.078L19.4014 11.5728L18.3425 11.1182L17.2734 10.7443L17.3345 10.0674L18.4545 10.5018L19.5541 11.007L20.5621 11.5728L21.3868 12.1588Z" fill="#FF9100"/>
<path d="M21.6104 11.7851L21.3864 12.1589L20.5617 11.5729L19.5537 11.0071L19.7268 10.5322L20.7653 11.1485V11.1384L21.6104 11.7851Z" fill="#FF9800"/>
<path d="M21.8545 11.4921L21.6102 11.7851L20.7651 11.1485V11.1384L19.7266 10.5322L19.9098 10.1382L20.9891 10.805L21.8545 11.4921Z" fill="#FF8200"/>
<path d="M22.3842 11.1688L22.1195 11.28L21.2235 10.5626L20.1035 9.85535L20.3071 9.68359L21.4577 10.4111L22.3842 11.1688Z" fill="#FF6C00"/>
<path d="M22.1196 11.2796L21.8548 11.4918L20.9894 10.8047L19.9102 10.1379L20.1036 9.85498L21.2236 10.5622L22.1196 11.2796Z" fill="#FF8200"/>
<path d="M17.6811 8.29931L17.6099 8.40035L16.2455 7.89517L16.2354 7.77393L17.6811 8.29931Z" fill="#960000"/>
<path d="M23.7999 12.1692L23.5556 11.9975L23.2807 11.9065L22.6494 11.1387L22.904 11.2296L23.1381 11.4014L23.7999 12.1692Z" fill="#FF6C00"/>
<path d="M22.7192 11.9976L22.4545 12.1795H22.4443L22.1897 12.4321L21.6094 11.7855L21.8537 11.4924L22.1185 11.2803L22.7192 11.9976Z" fill="#FF9800"/>
<path d="M23.2798 11.9065L23.0049 11.9166L22.7199 11.9975L22.1191 11.2801L22.3839 11.169L22.6486 11.1387L23.2798 11.9065Z" fill="#FF8200"/>
<path d="M24.9401 14.7052L24.8281 15.3013L24.3292 15.8368L23.474 16.3318L22.3336 16.7663L20.9897 17.1603L20.9591 17.0391L21.01 17.3523L19.6355 17.6453L18.2712 17.9181L16.9883 18.1707L15.8581 18.393L14.952 18.6051L14.8603 18.1L14.7178 17.615L15.6443 17.4937L16.7948 17.3321L18.0879 17.13L19.4624 16.8875L20.8369 16.6046L20.786 16.4329L22.1198 16.0388L22.242 16.3924L22.13 16.0388L23.2602 15.5943L24.1052 15.0689L24.2376 15.4427L24.7365 14.8769V14.8668L24.8485 14.2505L24.9401 14.7052Z" fill="#B1FF46"/>
<path d="M17.2744 10.7443L18.3435 11.1182L18.2417 11.8153L17.2235 11.492L16.2766 11.2697L15.4723 11.1485V11.1384L14.8512 11.1182L14.4439 11.199L14.2403 11.3809L14.2199 11.6435L13.9043 10.6231L13.9756 10.4008L13.9857 10.3806L14.2505 10.2391L14.729 10.1987L15.4112 10.2695L16.2766 10.4614L17.2744 10.7443Z" fill="#FFC400"/>
<path d="M22.2107 13.3511L22.1292 13.9068L21.9256 14.22L21.7423 14.5837L21.8238 14.1088L21.559 13.6138L21.0092 13.1187L20.2252 12.6337L19.2783 12.1891L18.25 11.8153L18.3416 11.1182L19.4005 11.5728L20.378 12.078V12.0679L21.1823 12.6135L21.7423 13.1591L21.9968 13.7047L22.2107 13.3511Z" fill="#FFDE00"/>
<path d="M21.9968 13.7047L21.8238 14.1088L21.559 13.6138L21.0092 13.1187L20.2252 12.6337L19.2783 12.1891L18.25 11.8153L18.3416 11.1182L19.4005 11.5728L20.378 12.078V12.0679L21.1823 12.6135L21.7423 13.1591L21.9968 13.7047Z" fill="#FFC400"/>
<path d="M21.6712 14.5433L21.4166 14.1088L20.877 13.6643L20.1032 13.2399L19.1665 12.8661L18.1687 12.5428L17.181 12.3003L16.2749 12.1285L15.5113 12.0679L14.9513 12.0881H14.9411L14.5847 12.2195L14.4218 12.4316L14.4524 12.7246L14.208 11.6436L14.2386 11.3809L14.4422 11.199L14.8495 11.1182L15.4705 11.1485V11.1384L16.2749 11.2697L17.2218 11.492V11.5021L18.2501 11.8153L19.2785 12.1891V12.1992L20.2254 12.6337L21.0093 13.1187L21.5592 13.6138L21.8137 14.1088L21.6712 14.5433Z" fill="#FBF100"/>
<path d="M13.9541 13.028L13.9337 13.705L13.8217 14.3314L13.6384 14.8972L13.3941 15.4024L13.1395 15.8166L12.7119 15.2205L12.9359 14.7557L13.1497 14.2203L13.3024 13.6241V13.614L13.3941 12.9573L13.4043 12.25L13.3432 11.5428L13.2515 10.8457L13.1905 10.2192L13.1803 10.199L13.109 9.65343L13.0377 9.21897L13.0988 8.90576L13.5264 9.70395L13.5366 10.0374L13.6588 10.4516L13.7606 10.9871L13.8319 11.6438L13.9133 12.3309L13.9541 13.028Z" fill="#FF1E00"/>
<path d="M24.481 17.8672L24.2876 18.1905L24.0636 18.4734L23.8192 18.6755L23.361 18.9483H23.3509L23.0963 19.0796L22.3123 19.3423L21.2331 19.6252L19.9807 19.9384L19.9604 19.9485H19.9502L19.8789 19.9586L18.6979 20.2516L17.303 20.6154L15.9692 21.0296L14.7881 21.4843L15.0325 21.3529L15.2666 21.1509L14.3096 21.6055L14.5336 21.3125L15.4703 20.8781L16.6106 20.4739L17.9037 20.09L19.2782 19.7364L20.6426 19.4029L20.724 19.2817L22.0476 18.918L23.1676 18.5744L24.0025 18.2208L24.481 17.8672Z" fill="#02E8F4"/>
<path d="M14.3102 20.0704L12.9967 20.4443H12.9866L11.836 20.8383L10.8891 21.2323L10.1561 21.6163L9.63679 21.98L9.37207 21.4243L9.9117 21.1111L10.6651 20.7777L11.6324 20.424L12.8033 20.0603L14.1371 19.7168L14.3102 20.0704Z" fill="#00E0FB"/>
<path d="M11.735 7.07764L11.1342 7.27971L10.7473 7.62323L10.167 7.68385L10.6353 7.32012L11.3379 7.10795L11.735 7.07764Z" fill="#9F0000"/>
<path d="M10.8891 11.5323L10.8993 12.2497L10.8586 12.9165L10.7771 13.5227V13.5328L10.6957 14.0683L10.1866 14.1289L10.2273 13.5934L10.2884 12.9872H10.2782L10.2986 12.3204L10.268 11.6131L10.1764 10.8756L10.0542 10.1481L9.93204 9.43076L9.85059 8.78413L9.91168 8.18802L10.1662 7.68284L10.7466 7.63232L10.5429 8.10719L10.5226 8.6932L10.5938 9.33983L10.716 10.0572L10.828 10.7947H10.8178L10.8891 11.5323Z" fill="#A40000"/>
<path d="M14.5231 21.5451L13.5049 22.03L13.2097 22.0199L12.9144 21.929L12.6191 21.7572L13.6984 21.2925L13.9733 21.444L14.2482 21.535L14.5231 21.5451Z" fill="#00A8FF"/>
<path d="M13.8213 21.9695L13.0577 22.4747L12.7319 22.5454L12.4163 22.5252L12.0803 22.4242L11.7646 22.2423L12.6403 21.7573L12.9355 21.9291L13.2308 22.02L13.5261 22.0301L13.8213 21.9695Z" fill="#1A8DFF"/>
<path d="M22.1189 16.0384L20.7851 16.4324L20.8462 16.6042L19.4615 16.8871L18.087 17.1296L16.7939 17.3316L16.631 16.9477L16.7837 17.3316L15.6434 17.4832V17.4933L14.7168 17.6145L14.5336 17.1599L14.3096 16.7557L15.2768 16.7052L15.4703 17.0689H15.4805L15.2768 16.7052L16.4477 16.6042L17.7611 16.4425L19.1662 16.2303L20.5509 15.9576L20.6324 16.1091L21.9662 15.7252L23.0861 15.2705L23.2592 15.5938L22.1189 16.0384Z" fill="#D7FF1F"/>
<path d="M10.6662 23.1915L10.4321 23.6158H10.4219L10.3404 23.9796L10.3506 24.2524L10.4015 24.414L9.90262 23.9796L9.87207 23.8482L9.90262 23.6057V23.5956H9.89243L10.0248 23.2723L10.2997 22.8682L10.6662 23.1915Z" fill="#005CFF"/>
<path d="M10.2985 22.8685L10.0236 23.2726L9.90141 23.596L9.49414 23.1211L9.64687 22.818L9.95231 22.4644L10.2985 22.8685Z" fill="#0070FF"/>
<path d="M9.8714 23.8495L9.90195 23.9809L9.43359 23.4353V23.3241L9.4845 23.1221L9.89177 23.5969L9.8714 23.8495Z" fill="#0070FF"/>
<path d="M14.9722 20.8577L13.6995 21.2921L12.6202 21.7569L11.7446 22.2419L11.093 22.7268L10.6654 23.1916L10.2988 22.8683L10.757 22.4338L11.429 21.9691L12.3352 21.5144L13.445 21.0699L14.7278 20.6455L14.9722 20.8577Z" fill="#0074FF"/>
<path d="M10.9304 24.7281L11.0118 24.7888L10.462 24.4654L10.4009 24.4149L10.35 24.2533L10.3398 23.9805L10.4213 23.6167H10.4315L10.6657 23.1924L11.0526 23.4147L10.8489 23.8592L10.798 24.2432L10.8387 24.5463L10.9304 24.7281Z" fill="#004CFF"/>
<path d="M14.7283 20.6455L13.4454 21.0699L12.3356 21.5144L11.4295 21.9691L10.7575 22.4338L10.2993 22.8683L9.95312 22.4642L10.4418 22.06L11.1444 21.6357L12.0709 21.2012L13.2112 20.787L14.5043 20.3828L14.7283 20.6455Z" fill="#0084FF"/>
<path d="M9.95275 22.465L9.6473 22.8186L9.49458 23.1217L9.43349 23.3238V23.4349L9.00586 22.7782L9.0364 22.7074L9.11786 22.5458L9.31131 22.2932L9.63712 21.98L9.95275 22.465Z" fill="#008CFF"/>
<path d="M11.836 20.8379L12.0701 21.2016L11.1436 21.6361L10.4411 22.0604L9.95235 22.4646L9.63672 21.9796L10.156 21.6159L10.8891 21.2319L11.836 20.8379Z" fill="#00B4FF"/>
<path d="M14.503 20.3835L13.2099 20.7877L12.9961 20.4441L14.3095 20.0703L14.503 20.3835Z" fill="#00B4FF"/>
<path d="M12.986 20.4434L13.21 20.7869L12.0799 21.2011L11.8457 20.8374L12.986 20.4434Z" fill="#00B4FF"/>
<path d="M11.5812 24.9707L11.011 24.7889L10.9295 24.7282L10.8379 24.5464L11.3368 24.6979L11.459 24.9L11.5812 24.9707Z" fill="#003CFF"/>
<path d="M11.256 24.3941L11.3375 24.6972L10.8386 24.5356L10.7979 24.2426L10.8488 23.8586L11.0524 23.4141L11.4495 23.5353L11.2764 24.0001L11.256 24.3941Z" fill="#003CFF"/>
<path d="M24.8482 14.2505L24.7362 14.8668L24.2373 15.4427L24.1049 15.0689L23.2599 15.5943L23.0969 15.2709L21.9668 15.7256L21.7835 15.4427L21.5697 15.2103L21.3457 15.0285L22.4453 14.5738L22.6795 14.7557L22.8933 14.9779L22.9035 14.988L23.7384 14.4526L23.9318 14.7355L24.4307 14.1292L24.5326 13.4624L24.7056 13.8362L24.8482 14.2505Z" fill="#F8F500"/>
<path d="M9.63647 21.9795L9.31066 22.2927L9.11721 22.5453L9.03576 22.707L9.00521 22.7777L8.63867 22.0199L8.69976 22.0098L8.80158 21.8886L9.01539 21.6966L9.37175 21.4238L9.63647 21.9795Z" fill="#00ACFF"/>
<path d="M12.7209 22.5458L12.1609 23.0611L11.8045 23.0409L11.4482 22.9297L11.0918 22.7175L11.7434 22.2427L12.0591 22.4245L12.395 22.5256L12.7209 22.5458Z" fill="#0080FF"/>
<path d="M13.8318 18.4839L12.4776 18.7365L11.2762 18.9689L10.258 19.1912L9.46388 19.3831L8.87334 19.5246L8.46608 19.6155L8.21154 19.6357V19.6458L8.05881 19.5852L7.96718 19.4337L7.88572 19.1912L7.81445 18.2313L7.89591 18.5344L8.0079 18.7365V18.7466L8.16063 18.8578V18.8476L8.41517 18.8881L8.83262 18.8578L9.42315 18.7668L10.2275 18.6355L11.2457 18.4738L12.4471 18.2717L13.8114 18.0596L13.8318 18.4839Z" fill="#66FF90"/>
<path d="M12.1417 25.0003L11.5817 24.97L11.4595 24.8993L11.3475 24.7073H11.3373V24.6972L11.2559 24.3941L11.2762 24.0001L11.4493 23.5454L11.8362 23.5656L11.7039 24.0203L11.7242 24.4143L11.8362 24.7275L11.9889 24.9296L12.1417 25.0003Z" fill="#0014FF"/>
<path d="M9.37307 21.4237L9.01671 21.6965L8.8029 21.8885L8.70108 22.0098L8.63999 22.0199L8.55854 21.8077L8.34473 21.2116L8.416 21.2419L8.53818 21.1813L8.77236 21.0297V21.0398L9.14908 20.8276L9.37307 21.4237Z" fill="#00D4FF"/>
<path d="M14.1362 19.7168L12.8024 20.0603L11.6316 20.424L10.6643 20.7676L10.4912 20.2725L11.4686 19.9593L12.6497 19.6461L14.0039 19.3228L14.1362 19.7168Z" fill="#09F0EE"/>
<path d="M10.4822 20.272L10.6655 20.767V20.7772L9.91206 21.1106L9.37243 21.4238L9.14844 20.8277L9.70843 20.565L10.4822 20.272Z" fill="#09F0EE"/>
<path d="M12.6917 24.879L12.1419 25.0003L11.9892 24.9295L11.8365 24.7275L11.7245 24.4142L11.7041 24.0202L11.8365 23.5655L12.2132 23.4746L12.1114 23.9293L12.1725 24.3233L12.315 24.6163V24.6264L12.5085 24.8184L12.6917 24.879Z" fill="#003CFF"/>
<path d="M13.832 17.6355L13.8117 18.0599L12.4473 18.2721L11.2459 18.4741L10.2277 18.6358L9.42339 18.7671L8.83286 18.8581L8.41541 18.8884L8.16087 18.848V18.8581L8.00814 18.7368L7.99796 18.7166L7.89615 18.5348L7.81469 18.2316L7.7027 17.8376L7.57033 17.3627L7.40743 16.8171L7.23434 16.2311L7.0918 15.6047L7.11216 14.5034L7.26488 15.1298L7.43797 15.7563L7.60088 16.3322V16.3625L7.73324 16.8475L7.83506 17.2819V17.292L7.91651 17.6355L8.01833 17.8982L8.18123 18.0801L8.43577 18.1811L8.84304 18.2013H8.85322L9.44376 18.171L10.2481 18.1003L11.2561 17.9791L12.4677 17.8174L13.832 17.6355Z" fill="#8DFF6A"/>
<path d="M7.03054 13.8765L7.112 14.5029L7.08145 15.6042L7 14.9879L7.03054 13.8765Z" fill="#8DFF6A"/>
<path d="M17.569 16.1703L18.9741 15.9683L19.1573 16.231L17.7624 16.4431L16.449 16.6048L15.2781 16.7058L15.0439 16.3825L16.2352 16.3017L17.569 16.1703Z" fill="#F1FC06"/>
<path d="M21.966 15.7255L20.6322 16.1094L20.5406 15.9579L19.1661 16.2306L18.9726 15.968L18.7588 15.7457L20.1435 15.483L20.0417 15.3921L21.3449 15.0283L21.5689 15.2102L21.7827 15.4426L21.966 15.7255Z" fill="#F1FC06"/>
<path d="M8.92504 17.5746L8.84358 18.201L8.43632 18.1808L8.18178 18.0797L8.01887 17.8979L7.91705 17.6352L7.8356 17.2816L7.73378 16.8471L7.60142 16.3318L7.43852 15.7559L7.26543 15.1295L7.1127 14.5031L7.03125 13.8766L7.15343 12.8057L7.23488 13.4321V13.4422L7.38761 14.0888L7.5607 14.7253L7.7236 15.3316L7.85596 15.8873V15.9176L7.9476 16.3823L8.02905 16.7865L8.12069 17.0997L8.27341 17.3422L8.52795 17.4937L8.92504 17.5746Z" fill="#BEFF39"/>
<path d="M13.8932 17.2407L13.8321 17.6348L12.4678 17.8166L12.539 17.3923L13.8932 17.2407Z" fill="#BEFF39"/>
<path d="M9.5255 17.6045L9.45423 18.1703L8.85352 18.2006L8.94515 17.5742L9.5255 17.6045Z" fill="#BEFF39"/>
<path d="M12.5294 17.3921L12.4683 17.8164L11.2567 17.9781L10.2487 18.0993L9.44434 18.1701L9.52579 17.6043L10.32 17.574L11.3279 17.5032L12.5294 17.3921Z" fill="#BEFF39"/>
<path d="M12.8337 22.8079L12.569 23.2929L12.2126 23.4747L11.8359 23.5656L11.449 23.5353L11.0519 23.4141L10.665 23.1918L11.0927 22.7271L11.449 22.9291L11.8054 23.0403L12.1617 23.0605L12.5079 22.9796V22.9897L12.8337 22.8079Z" fill="#007CFF"/>
<path d="M12.1617 23.0605L11.8359 23.5656L11.449 23.5353L11.0519 23.4141L10.665 23.1918L11.0927 22.7271L11.449 22.9291L11.8054 23.0403L12.1617 23.0605Z" fill="#0064FF"/>
<path d="M13.2008 24.6164L12.6917 24.8791L12.5084 24.8185L12.315 24.6164L12.1724 24.3234L12.1113 23.9293L12.2131 23.4747L12.5695 23.2827L12.5084 23.7273L12.5899 24.1011L12.7731 24.384L12.9971 24.5558L13.2008 24.6164Z" fill="#0038FF"/>
<path d="M13.9029 18.9181L12.5488 19.201L11.3473 19.4738L10.3495 19.7365L9.56554 19.9789L8.98518 20.181L8.5881 20.3427V20.3326L8.34374 20.4235H8.2012L8.10956 20.3326L8.03829 20.1406L7.94666 19.8476L7.81429 19.4536L7.80411 19.3929L7.67175 18.9686L7.49866 18.423L7.34594 17.837L7.17285 16.7256L7.31539 17.3318L7.48848 17.8976L7.65139 18.4129L7.78375 18.8473L7.87538 19.1909L7.96702 19.4333L8.05865 19.5849L8.21138 19.6354L8.46592 19.6152L8.87319 19.5243L9.46372 19.3828V19.3727L10.2579 19.1909L11.2761 18.9686L12.4775 18.7362L13.8316 18.4836L13.9029 18.9181Z" fill="#40FFB7"/>
<path d="M13.994 16.8669L13.8922 17.2407L12.538 17.3923L11.3264 17.5034L10.3184 17.5741L9.52428 17.6044H9.5141L8.93375 17.5741L8.52648 17.4933L8.27194 17.3417L8.11921 17.0993L8.02758 16.786L7.94613 16.3819L7.85449 15.8868L8.05812 15.0078L8.14976 15.5332L8.22103 15.9879L8.30248 16.3617L8.43485 16.6446L8.67921 16.8568L9.07629 16.9982L9.64646 17.079L10.4406 17.0993L11.4384 17.0689L12.6399 16.9881L13.994 16.8669Z" fill="#E1FF16"/>
<path d="M7.93828 14.4121L8.06046 15.0082L7.84665 15.8872L7.72447 15.3315L7.56156 14.7253L7.38847 14.0887L7.23575 13.4421L7.24593 13.4219V13.4118L7.1543 12.8056L7.38847 11.8154L7.46993 12.452L7.62265 13.1087V13.1289L7.78556 13.7755L7.93828 14.4121Z" fill="#E1FF16"/>
<path d="M13.8528 24.1013L13.364 24.5357L13.2011 24.6166L13.0077 24.556L12.9975 24.5661L12.7735 24.3842L12.5902 24.1013L12.5088 23.7275L12.5699 23.293L12.8957 23L12.855 23.4142L12.9771 23.7578L13.1808 24.0205L13.4353 24.172L13.6695 24.2023L13.8528 24.1013Z" fill="#0054FF"/>
<path d="M14.0661 21.8179L13.445 22.2321L13.3126 22.3635L13.1803 22.6161L12.8952 23L12.5694 23.2829L12.8341 22.808L12.5286 22.9697L12.5083 22.9899L12.1621 23.0606L12.7119 22.5453L13.0275 22.4746H13.0377L13.3432 22.2624L13.3941 22.2018L13.3737 22.2523L13.5163 22.1513L13.5468 22.1311L13.7912 21.9694L14.0661 21.8179Z" fill="#0098FF"/>
<path d="M14.2907 23.5356L13.8529 24.1014L13.6696 24.2025L13.4354 24.1722L13.191 24.0206L12.9772 23.7579L12.8652 23.4144L12.8958 23.0001L13.1809 22.6162L13.1707 23.0001L13.3132 23.3134L13.5474 23.5356V23.5457L13.8223 23.6569H14.087L14.2907 23.5356Z" fill="#007CFF"/>
<path d="M24.8492 16.645L24.7677 17.0795L24.6455 17.4836L24.1568 17.8777L24.6455 17.4937L24.4826 17.8676L24.0041 18.2111L23.9939 18.2212L23.1692 18.5748L22.0492 18.9183L20.7256 19.2821L20.6441 19.4033L19.2798 19.7367L17.9053 20.0903L16.6122 20.4743L15.4719 20.8784L14.5352 21.3129L14.7184 20.9593L14.861 20.5551H14.8508L14.9526 20.1004L15.8588 19.767L16.9788 19.4336L18.2616 19.1204V19.1103L19.6158 18.7971L20.9903 18.4839L21.0209 18.302L22.3648 17.9282L23.5052 17.524L24.3503 17.0997L24.8492 16.645Z" fill="#43FFB4"/>
<path d="M14.6453 22.8389L14.2889 23.536L14.0853 23.6573H13.8308L13.5457 23.536L13.3115 23.3138L13.1689 23.0006L13.1791 22.6166L13.4133 22.1519L13.4235 22.4954L13.5966 22.7682L13.8613 22.95L14.1464 23.0309L14.4315 22.9905L14.6453 22.8389Z" fill="#00A8FF"/>
<path d="M14.1269 16.534L13.9945 16.8674L12.6403 16.9887L11.4389 17.0695L10.4411 17.0998L9.64694 17.0796L9.07677 16.9988L8.67969 16.8573L8.90368 16.2915L9.27022 16.4835L9.84039 16.6047L10.604 16.6653L11.6018 16.6754L12.7829 16.635L14.1269 16.534Z" fill="#FFDE00"/>
<path d="M8.89425 16.2914L8.68043 16.8572L8.43607 16.6451L8.30371 16.3622L8.55825 15.6953L8.68043 16.0287L8.89425 16.2914Z" fill="#FFDE00"/>
<path d="M15.0852 21.7065L14.7899 22.5451L14.6473 22.8381L14.4335 22.9897L14.1586 23.0301H14.1484L13.8634 22.9493L13.5986 22.7674L13.8124 22.1309L14.0975 22.2622L14.4132 22.3027L14.7084 22.2218L14.9426 22.0198L15.0852 21.7065Z" fill="#00C4FF"/>
<path d="M13.6279 21.9092L13.8111 22.1315L13.5871 22.768L13.4242 22.4952L13.4141 22.1517L13.5973 21.6162L13.6279 21.9092Z" fill="#00C4FF"/>
<path d="M25.0005 15.6745L24.9495 16.1595L24.8477 16.6445L24.3488 17.0991L24.3896 16.6748H24.3794L24.3488 17.0991L23.5037 17.5235L22.3634 17.9276L21.0194 18.3015L21.0296 18.1196L20.9889 18.4833L19.6245 18.7965H19.6144L18.25 19.1199L16.9773 19.4432L15.8573 19.7665L14.9512 20.0999L15.0021 19.6149V19.1098L14.9512 18.6046L15.8573 18.3924L16.9875 18.1701L18.2704 17.9175L19.6347 17.6447L21.0092 17.3517L20.9889 17.1598L22.3329 16.7657L23.4732 16.3313L24.3285 15.8362L24.8274 15.3007L24.9394 14.7046L24.9903 15.1795L25.0005 15.6745Z" fill="#83FF73"/>
<path d="M15.2888 20.7671L15.0852 21.7067L14.9426 22.0199L14.7084 22.222L14.4132 22.3028L14.0975 22.2624L13.8124 22.1311L13.6292 21.9088L13.5986 21.6158L13.731 21.0197L13.7717 21.2622L13.9652 21.4238L14.2503 21.5047L14.5863 21.4844L14.8815 21.3531H14.8917L15.1361 21.1207L15.2888 20.7671Z" fill="#0CF4EB"/>
<path d="M8.55761 15.6953L8.30307 16.3621L8.22161 15.9883L8.15034 15.5337L8.05871 15.0083L7.93653 14.4122L7.7838 13.7756L7.61071 13.1088L7.46817 12.4521L7.38672 11.8155L7.54963 11.1689L7.86526 10.2798L7.72271 10.9163L7.80417 11.5629L7.94671 12.2298L8.10962 12.9168L8.25216 13.5837L8.36416 14.2101L8.43543 14.7759L8.49652 15.271L8.55761 15.6953Z" fill="#FFC400"/>
<path d="M15.3901 19.7563L15.2883 20.7667L15.1355 21.1203L14.8912 21.3527L14.5857 21.4841L14.2497 21.5043L13.9646 21.4234L13.7712 21.2618L13.7305 21.0193L13.7916 20.3828L13.8323 20.5545L14.0359 20.6657L14.3312 20.6859L14.6672 20.6152L14.9828 20.4333L15.2374 20.1403L15.3901 19.7563Z" fill="#43FFB4"/>
<path d="M8.88336 15.1194L8.55755 15.6953L8.48628 15.281V15.2709L8.43537 14.7758L8.3641 14.21L8.2521 13.5836L8.10956 12.9168L7.94665 12.2297L7.80411 11.5629L7.72266 10.9163L7.8652 10.2797L8.27246 9.52197L8.1401 10.1484L8.23174 10.795L8.3641 11.4821L8.52701 12.1792L8.65937 12.8663L8.751 13.523L8.81209 14.1292L8.84264 14.6647L8.88336 15.1194Z" fill="#FF9800"/>
<path d="M10.0747 16.2007L10.8179 16.3017L10.6041 16.6655L9.8405 16.6049L9.27033 16.4836L8.90379 16.2916L8.6798 16.029L8.55762 15.6955L8.88343 15.1196L8.97506 15.5036L9.1787 15.8067L9.52487 16.0391L10.0747 16.2007Z" fill="#FFC800"/>
<path d="M14.2905 16.2515L14.1174 16.5445L12.7633 16.6455L11.572 16.696L10.5742 16.6859L10.7779 16.302L11.7655 16.3424L12.9465 16.3222L14.2905 16.2515Z" fill="#FFC800"/>
<path d="M8.64971 9.52226L8.73116 10.1689L8.22208 10.7953L8.14062 10.1487L8.27299 9.52226L8.70062 8.94636L9.13843 8.36035L8.76171 8.90595L8.75152 8.92615L8.64971 9.52226Z" fill="#FF6F00"/>
<path d="M9.27095 14.665L8.88405 15.1197L8.84332 14.665L8.81278 14.1296L8.75169 13.5233L8.66005 12.8666L8.52769 12.1796L8.36478 11.4824L8.23242 10.7954L8.73132 10.1689L8.86368 10.8661L9.01641 11.5834L9.13859 12.2907L9.20986 12.9777L9.25059 13.6042L9.26077 14.17L9.25059 14.1801L9.27095 14.665Z" fill="#FF6F00"/>
<path d="M10.3388 15.8765L10.0741 16.1998L9.52426 16.0382L9.17808 15.8058L8.97445 15.5027L8.88281 15.1187L9.26971 14.6641L9.34099 15.0783L9.51407 15.4218L9.8297 15.6845L10.3388 15.8765Z" fill="#FFA700"/>
<path d="M13.1796 16.079L12.9658 16.3215L11.7949 16.3417L10.8175 16.3013L10.0742 16.2003L10.3491 15.877L11.072 16.0083H11.0822L12.0291 16.0689L13.1796 16.079Z" fill="#FFA700"/>
<path d="M9.73843 12.5732V13.2199L9.72825 13.8059L9.70788 14.3313L9.27007 14.6647L9.24971 14.1696H9.25989V14.1595L9.24971 13.6038L9.20898 12.9774L9.73843 12.5732Z" fill="#FF4A00"/>
<path d="M9.4334 10.4114L8.86323 10.8661L8.73087 10.1689L8.64941 9.5223L8.75123 8.90598H8.76141L8.77159 8.88577L9.13813 8.36039L9.62685 7.93604L9.31122 8.46142L9.21959 9.06764L9.30104 9.71427L9.4334 10.4114Z" fill="#FF4A00"/>
<path d="M9.72872 12.5638L9.20946 12.9781L9.128 12.291H9.13819V12.2809L9.01601 11.5838L8.86328 10.8664L9.43345 10.4219L9.56581 11.1392V11.1493L9.67781 11.8667L9.72872 12.5638Z" fill="#FF4A00"/>
<path d="M13.4256 15.8971L13.1812 16.079L12.0307 16.0689L11.0736 15.9981L10.3507 15.8769L9.83147 15.6849L9.51584 15.4222L9.34276 15.0787L9.27148 14.6645L9.7093 14.3311L9.75002 14.7655L9.88238 15.1292L10.1777 15.4222L10.6664 15.6344L11.3587 15.7961L12.2853 15.8769L13.4256 15.8971Z" fill="#FF7700"/>
<path d="M10.2675 11.6134L10.298 12.3206L10.2776 12.9874L10.2267 13.5937L10.186 14.1292L9.70747 14.3312L9.71765 13.8058L9.73801 13.2198L9.72783 12.5732L9.67692 11.8761V11.866L9.56493 11.1486L9.43256 10.4211L9.3002 9.71389L9.21875 9.06726L9.31038 8.46104L9.62602 7.93565L10.1758 7.55172L10.634 7.31934L10.1656 7.68307L9.9111 8.18824L9.85001 8.78436L9.93146 9.43099L10.0536 10.1483L10.1758 10.8859L10.2675 11.6134Z" fill="#FF3000"/>
<path d="M12.569 15.7657L12.284 15.8768L11.3574 15.796L10.6549 15.6343L10.1764 15.4222L9.8811 15.1292L9.74873 14.7654L9.70801 14.331L10.1865 14.1289V14.5836L10.2884 14.9574L10.5531 15.2706L11.0011 15.503L11.6731 15.6647L12.569 15.7657Z" fill="#FF6000"/>
<path d="M14.4439 13.9169L14.4031 14.5635L14.281 15.1596L14.0672 15.6951L13.8024 16.1498L13.5275 16.5135L13.1406 15.8164L13.3952 15.4021L13.6395 14.8969L13.8228 14.3311L13.9348 13.7047L13.9552 13.0278L13.9144 12.3306L13.833 11.6436L13.7617 10.9868L13.6599 10.4514L13.5377 10.0371L13.9755 10.9666L14.1384 11.3809L14.2606 11.9164L14.3217 12.5428L14.3319 12.563L14.4031 13.2399L14.4439 13.9169Z" fill="#FF6800"/>
<path d="M12.8653 15.7258L12.57 15.7663L11.674 15.6652L11.002 15.5036L10.5439 15.2712L10.2893 14.958L10.1875 14.5841V14.1295L10.6966 14.0688L10.6559 14.5235L10.7271 14.9175H10.7169L10.9409 15.2207L11.3584 15.453L11.9998 15.6248L12.8653 15.7258Z" fill="#FF3800"/>
<path d="M12.3352 15.6753L11.9993 15.6248L11.3578 15.453L10.9404 15.2207L10.7265 14.9175H10.7164L10.6553 14.5235L10.6858 14.0688L11.2153 14.1497L11.1338 14.6043L11.1644 14.9782L10.7775 14.9277L11.1644 14.9883L11.3476 15.2914L11.7243 15.5137L12.3352 15.6753Z" fill="#FF3000"/>
<path d="M14.8502 7.37935L16.2349 7.77339V7.89464L14.9521 7.5107L13.8219 7.26821L12.875 7.16718L12.1419 7.2177L11.6328 7.41977L11.1339 7.27832L11.7347 7.07625L12.5695 7.01562L13.6183 7.12676L14.8502 7.37935Z" fill="#920000"/>
<path d="M11.6328 7.41977L11.3377 7.75295L10.7472 7.6216L11.1339 7.27832L11.6328 7.41977Z" fill="#920000"/>
<path d="M11.4805 10.8953L11.5416 11.6328L11.5212 12.3401L11.45 13.0069L11.3278 13.6131L11.2158 14.1486L10.6863 14.0678L10.778 13.5323V13.5222L10.8594 12.916L10.9002 12.2491L10.89 11.5318L10.8187 10.7942H10.8289L10.7169 10.0567L10.5947 9.33931L10.5234 8.69268L10.5438 8.10667L10.7474 7.63181L11.3377 7.75295L11.2056 8.21781V8.79372L11.2769 9.44035L11.3889 10.1476V10.1577L11.4907 10.8953H11.4805Z" fill="#920000"/>
<path d="M13.2828 16.7965L13.1403 16.9985L13.1504 17.1299L12.8552 16.5843L12.8145 16.4125L12.9265 16.1498L13.1403 15.8164L13.5272 16.5136L13.2828 16.7965Z" fill="#FF8D00"/>
<path d="M12.1001 15.6751L11.7233 15.5134L11.3466 15.2911L11.1735 14.988L11.1634 14.9779L11.1328 14.6041L11.2143 14.1494L11.7233 14.3717L11.6215 14.8163L11.6012 15.18L11.7437 15.4629L12.1001 15.6751Z" fill="#FF3400"/>
<path d="M16.2347 7.89494L16.2449 8.15763L15.0638 7.80401L15.0537 7.7939L14.0253 7.57162L13.1802 7.48069L12.5592 7.54131L12.1417 7.74339L11.6326 7.42007L12.1417 7.218L12.8748 7.16748L13.8217 7.26852L14.9518 7.511L16.2347 7.89494Z" fill="#A40000"/>
<path d="M17.6197 8.40034L17.5383 8.63272L16.2449 8.15763L16.2452 7.89516L17.6197 8.40034Z" fill="#A40000"/>
<path d="M12.1825 11.9061L12.1418 12.6032L12.04 13.2599L11.8872 13.8561L11.7243 14.3713L11.2153 14.1491L11.3273 13.6136L11.4494 13.0074L11.5207 12.3405L11.5411 11.6333L11.4902 10.8957L11.3883 10.1581L11.2763 9.44079L11.2051 8.78405V8.21825L11.3374 7.75349L11.6326 7.42007L12.1417 7.74339L11.928 8.0667L11.8669 8.52136L11.8872 9.07706L11.9687 9.73379L12.0705 10.441L12.152 11.1786L12.1825 11.9061Z" fill="#A40000"/>
<path d="M12.9248 16.1507L12.8128 16.4134L12.8536 16.5852L12.5074 16.1204L12.4463 15.8981L12.5277 15.595L12.711 15.2212L13.1386 15.8173L12.9248 16.1507Z" fill="#FF6800"/>
<path d="M12.0394 15.483L12.1412 15.7457L11.7441 15.4628L11.6016 15.1799L11.6219 14.8161L11.7237 14.3716L12.2328 14.7353L12.0801 15.1496L12.0394 15.483Z" fill="#FF3B00"/>
<path d="M12.5297 15.5942L12.4483 15.8973L12.5196 16.1195L12.1428 15.7457L12.041 15.483L12.0817 15.1496L12.2345 14.7354L12.713 15.2203L12.5297 15.5942Z" fill="#FF4E00"/>
<path d="M15.0542 7.80476L15.156 8.22911L14.2193 8.03714V8.02704L13.476 7.96642L12.9567 8.03714L12.6309 8.23921L12.1422 7.74414L12.5597 7.54207L13.1807 7.48145L14.0258 7.57238L15.0542 7.80476Z" fill="#E40000"/>
<path d="M17.5386 8.63331L17.4673 8.99704L16.2557 8.55248L15.156 8.22911L15.0645 7.79472L16.2455 8.15844L17.5386 8.63331Z" fill="#E40000"/>
<path d="M12.723 10.9068L12.0714 10.4421L11.9696 9.7348L11.8882 9.07807L11.8678 8.52237L11.9187 8.06771H11.9289L12.1422 7.74414L12.6309 8.23921L12.4991 8.56279L12.5092 8.99724L12.5601 9.55294L12.6314 10.2097L12.723 10.9068Z" fill="#E40000"/>
<path d="M12.8039 12.3516L12.7428 13.0386L12.6104 13.6751L12.4271 14.2409L12.2337 14.736L11.7246 14.3723L11.8875 13.857L12.0402 13.271V13.2609L12.1421 12.6041L12.1828 11.907L12.1522 11.1795L12.0714 10.4421L12.7224 10.9168L12.7937 11.6342L12.8039 12.3516Z" fill="#E40000"/>
<path d="M13.4033 12.2499L13.3931 12.9571L13.3015 13.6139L13.1488 14.2201L12.935 14.7556L12.711 15.2204L12.2324 14.7354L12.4259 14.2403L12.6091 13.6745L12.7415 13.038L12.8026 12.3509L12.7924 11.6336L12.7211 10.9162V10.9061L12.6295 10.209L12.5582 9.55224L12.5073 8.99654L12.4971 8.56208L12.6295 8.23877L13.0979 8.90561L13.0368 9.22892L13.108 9.65327L13.1793 10.1989L13.2506 10.8455L13.3422 11.5426L13.4033 12.2499Z" fill="#E40000"/>
<path d="M21.9263 14.2206L21.8245 14.4227L21.9263 14.4126L22.191 14.4631L22.4456 14.5742L21.346 15.0289L20.0427 15.3926L19.9816 15.3623L20.1547 15.4836L18.7598 15.7463L18.9737 15.9685L17.5686 16.1706L16.2348 16.302L15.0435 16.3828L14.789 16.1201L14.5141 15.9281L14.2392 15.8069L13.9541 15.7665L15.2268 15.7362L16.6217 15.625L18.0573 15.4533L17.8231 15.4735L19.2282 15.2108H19.2791L19.2995 15.2007L19.4624 15.1906L19.6558 15.2209L19.5744 15.1906H19.3504L20.6129 14.8571L21.3052 14.5843L21.8551 14.2408L22.13 13.9074L22.2114 13.3517L21.9976 13.7053L21.7329 13.1597H21.7431L21.9467 12.7657H21.9569L22.191 12.4323L22.4558 12.1797L22.7205 12.8465L22.6289 13.4628L22.1809 14.0286L21.9569 14.1802L21.9263 14.2206Z" fill="#FFDE00"/>
<path d="M21.9472 12.7551V12.7652L21.7334 13.1491L21.1836 12.6137L21.3872 12.159L21.6112 11.7852L22.1916 12.4318L21.9472 12.7551Z" fill="#FFBD00"/>
<path d="M15.4618 18.1807L15.4007 18.696L15.2378 19.1305L14.9832 19.4639L14.6676 19.6963L14.3316 19.8377L14.0363 19.868L13.8327 19.8276L13.7818 19.7165L13.7207 19.0395L13.7614 19.0901L13.9549 19.0698L14.2501 18.9688L14.5861 18.7667L14.8916 18.4838L15.136 18.0898L15.2887 17.6149L15.3599 17.0693L15.4618 18.1807Z" fill="#B1FF46"/>
<path d="M15.4612 18.1807V19.2719L15.3899 19.7568L15.2372 20.1408L14.9827 20.4338L14.6671 20.6156L14.3311 20.6864L14.0358 20.6661L13.8322 20.555L13.7914 20.3832L13.7812 19.7164L13.8322 19.8275L14.0358 19.868L14.3311 19.8377L14.6671 19.6962L14.9827 19.4638L15.2372 19.1304L15.4001 18.6959L15.4612 18.1807Z" fill="#83FF73"/>
<path d="M14.6977 17.5034L14.8911 18.4734V18.4835L14.5857 18.7664L14.2497 18.9684L13.9544 19.0695L13.761 19.0897L13.7203 19.0392L13.5879 18.3723L13.6184 18.3622L13.8017 18.2713L14.0868 18.1096L14.4024 17.857L14.6977 17.5034Z" fill="#F1FC06"/>
<path d="M15.3596 17.0688L15.2884 17.5841L15.2985 17.6144L15.1356 18.0893L14.8913 18.4732L14.708 17.5033L14.9422 17.0688L15.0949 16.5535L15.1458 15.9675L15.1255 15.331L15.0644 14.6844L14.9931 14.0479L15.2069 15.1896L15.2782 15.8261L15.3393 16.4626L15.3596 17.0587V17.0688Z" fill="#F1FC06"/>
<path d="M15.156 15.9681L15.0949 16.5541L14.9421 17.0694L14.708 17.5038L14.4025 17.8575L14.0869 18.11L13.8018 18.2717L13.6185 18.3626L13.588 18.3727L13.3945 17.7261L13.4047 17.6554L13.5676 17.5139L13.8425 17.2816L14.1378 16.9683L14.4229 16.5642L14.6469 16.0792L14.7894 15.5235L14.8403 14.8971L14.8098 14.2505L14.7385 13.5836L14.6774 12.9471L14.5349 12.4116L14.8505 13.5129L14.993 14.0484L15.0643 14.6849L15.1254 15.3316L15.1458 15.9277L15.156 15.9681Z" fill="#FFC100"/>
<path d="M13.1406 16.9985L13.2832 16.7964L13.5683 17.5137L13.4053 17.6552L13.3952 17.7259L13.1508 17.1298L13.1406 16.9985Z" fill="#FF8900"/>
<path d="M14.6763 12.9469L14.7374 13.5834L14.3302 12.563L14.2589 11.9163L14.1367 11.3809L14.5338 12.4114L14.6763 12.9469Z" fill="#FF8900"/>
<path d="M14.84 14.8964V14.9065L14.7891 15.5229L14.6466 16.0583L14.6567 16.0785L14.4226 16.5635L14.1477 16.9576V16.9677L13.8422 17.2809L13.5775 17.5133L13.2822 16.7959L13.5266 16.513L13.8015 16.1493L14.0662 15.6946L14.28 15.1591L14.4022 14.563L14.4429 13.9366L14.4328 13.9164L14.4022 13.2394L14.3208 12.5625L14.7382 13.583V13.5931L14.8095 14.2498L14.84 14.8964Z" fill="#FF8900"/>
<path d="M22.0081 13.6952L21.7434 13.1597L21.5703 13.6042L21.835 14.0993L22.0081 13.6952Z" fill="#FFE600"/>
<path d="M22.2217 13.3511L21.957 12.7651L21.7432 13.1592L22.0079 13.7048L22.2217 13.3511Z" fill="#FFCC00"/>
<path d="M24.5436 13.4627L24.3298 13.1495L24.0956 12.907L23.8105 12.1694L24.0447 12.422L24.2484 12.7453L24.5436 13.4627Z" fill="#FFCC00"/>
<path d="M22.7207 12.8465L22.4559 13.0587L22.2116 13.3517L21.957 12.7657L22.1912 12.4323L22.4559 12.1797L22.7207 12.8465Z" fill="#FFC100"/>
<path d="M23.2813 12.6241L22.9962 12.6948L22.7213 12.8363L22.4668 12.1694L22.7315 11.9876L23.0166 11.9067L23.2813 12.6241Z" fill="#FFB200"/>
<path d="M24.0943 12.907L23.8398 12.7352L23.5547 12.6443L23.2798 12.6241L23.0049 11.9067H23.2798L23.5547 11.9977L23.8092 12.1694L24.0943 12.907Z" fill="#FFB200"/>
<path d="M24.4308 14.109L24.5428 13.4421L24.3391 13.1289L24.2373 13.8058L24.4308 14.109Z" fill="#FEED00"/>
<path d="M22.3762 13.6343L22.4576 13.0483L22.2133 13.3413L22.1318 13.897L22.3762 13.6343Z" fill="#FFDE00"/>
<path d="M22.9844 12.6851L22.8927 13.3317L22.6178 13.4529L22.3633 13.6449L22.4447 13.0488L22.7095 12.8265V12.8366L22.9844 12.6851Z" fill="#FFD000"/>
<path d="M24.3191 13.1389L24.2172 13.8158L23.9831 13.5834L23.7285 13.4117L23.8303 12.7246L24.0849 12.8964L24.3191 13.1389Z" fill="#FFCC00"/>
<path d="M23.5452 12.634L23.4535 13.3109L23.1685 13.2806L22.8936 13.3311L22.9852 12.6845L23.2703 12.6138L23.5452 12.634Z" fill="#FFBD00"/>
<path d="M23.8298 12.7246L23.728 13.4116L23.4531 13.3106L23.5549 12.6235L23.8298 12.7246Z" fill="#FFBD00"/>
<path d="M22.1809 14.0078L22.6187 13.4521L22.3743 13.634L21.9365 14.1695L22.1809 14.0078Z" fill="#FFDE00"/>
<path d="M24.2173 13.8264L23.7285 14.4427L23.4944 14.2002L23.25 14.0284L23.7285 13.4121L23.9831 13.5839L24.2173 13.8264Z" fill="#FFE600"/>
<path d="M22.4454 13.9063L22.8934 13.3203L22.6185 13.4416L22.1807 13.9973L22.4454 13.9063Z" fill="#FFD300"/>
<path d="M23.7282 13.4121L23.2497 14.0284L22.9849 13.9274L22.7202 13.887L22.4453 13.9173L22.8933 13.3313L23.1682 13.2808L23.4533 13.3111L23.7282 13.4121Z" fill="#FFCC00"/>
</g>
<defs>
<clipPath id="clip0">
<rect width="18" height="18" fill="white" transform="translate(7 7)"/>
</clipPath>
</defs>
</svg>
