<svg width="32" height="32" viewBox="0 0 32 32" fill="none" xmlns="http://www.w3.org/2000/svg">
<g clip-path="url(#clip0_8111_1969)">
<path d="M0.846897 10.0333C1.33368 5.04792 5.31806 1.17702 10.3175 0.77696C12.3315 0.615794 14.3889 0.5 16.1381 0.5C17.8062 0.5 19.7546 0.605291 21.6787 0.754869C26.8047 1.15334 30.8446 5.20251 31.2405 10.3297C31.3924 12.2968 31.5 14.2936 31.5 16C31.5 17.7007 31.3931 19.69 31.242 21.6509C30.8462 26.7866 26.7941 30.8388 21.6583 31.2383C19.6883 31.3915 17.6935 31.5 16 31.5C14.2759 31.5 12.2653 31.3875 10.2968 31.23C5.30742 30.8306 1.33566 26.9629 0.848804 21.9862C0.646457 19.9178 0.5 17.7977 0.5 16C0.5 14.208 0.645534 12.0956 0.846897 10.0333Z" fill="white" stroke="#EBEEF2"/>
<path fill-rule="evenodd" clip-rule="evenodd" d="M12.1122 13.1417C13.2211 12.4969 14.34 11.8521 15.4489 11.2073C15.6118 11.1096 15.7979 11.058 15.9876 11.058C16.1774 11.058 16.3635 11.1096 16.5264 11.2073L18.1766 12.1538C18.1977 12.167 18.2152 12.1855 18.2273 12.2074C18.2393 12.2293 18.2457 12.2539 18.2457 12.2789C18.2457 12.3039 18.2393 12.3286 18.2273 12.3505C18.2152 12.3724 18.1977 12.3908 18.1766 12.4041L14.1436 14.7346C14.0927 14.7641 14.0506 14.8067 14.0216 14.858C13.9926 14.9092 13.9778 14.9674 13.9786 15.0263V16.9823C13.9779 17.0397 13.9929 17.0962 14.022 17.1456C14.0511 17.195 14.0932 17.2354 14.1436 17.2624L15.8317 18.2404C15.8797 18.2712 15.9356 18.2876 15.9926 18.2876C16.0496 18.2876 16.1054 18.2712 16.1535 18.2404L23.1139 14.2141C24.2954 13.5279 24.2954 11.5504 23.1139 10.8642L16.8565 7.24238C16.5957 7.08382 16.2966 7 15.9918 7C15.6869 7 15.3879 7.08382 15.1271 7.24238L8.86967 10.8642C8.60401 11.0149 8.3833 11.2342 8.2304 11.4994C8.07749 11.7646 7.99796 12.0661 8.00004 12.3726C8.00004 14.791 8.00994 17.211 8.00004 19.6244C7.99801 19.9311 8.07755 20.2328 8.23043 20.4983C8.38332 20.7637 8.604 20.9834 8.86967 21.1345L15.1271 24.7662C15.3898 24.9194 15.6881 25 15.9918 25C16.2955 25 16.5938 24.9194 16.8565 24.7662L23.1139 21.1345C23.3795 20.9841 23.5996 20.7644 23.751 20.4985C23.9023 20.2327 23.9792 19.9306 23.9736 19.6244V16.4751L16.5264 20.8013C16.3632 20.8981 16.1772 20.9492 15.9876 20.9492C15.7981 20.9492 15.6121 20.8981 15.4489 20.8013L12.1254 18.8653C11.9598 18.7726 11.8221 18.6366 11.7271 18.4717C11.6321 18.3069 11.5833 18.1192 11.5858 17.9287V14.0683C11.5851 13.8808 11.6336 13.6965 11.7263 13.5339C11.819 13.3712 11.9526 13.236 12.1139 13.1417H12.1122Z" fill="url(#paint0_linear_8111_1969)"/>
</g>
<defs>
<linearGradient id="paint0_linear_8111_1969" x1="12.1353" y1="4.54219" x2="19.2434" y2="25.5161" gradientUnits="userSpaceOnUse">
<stop stop-color="#273498"/>
<stop offset="0.53" stop-color="#0074C2"/>
<stop offset="1" stop-color="#00ABE7"/>
</linearGradient>
<clipPath id="clip0_8111_1969">
<rect width="32" height="32" fill="white"/>
</clipPath>
</defs>
</svg>
