<svg width="32" height="32" viewBox="0 0 32 32" fill="none" xmlns="http://www.w3.org/2000/svg">
<g clip-path="url(#clip0_12512_1813)">
<path d="M0.846897 10.0333C1.33368 5.04792 5.31806 1.17702 10.3175 0.77696C12.3315 0.615794 14.3889 0.5 16.1381 0.5C17.8062 0.5 19.7546 0.605291 21.6787 0.754869C26.8047 1.15334 30.8446 5.20251 31.2405 10.3297C31.3924 12.2968 31.5 14.2936 31.5 16C31.5 17.7007 31.3931 19.69 31.242 21.6509C30.8462 26.7866 26.7941 30.8388 21.6583 31.2383C19.6883 31.3915 17.6935 31.5 16 31.5C14.2759 31.5 12.2653 31.3875 10.2968 31.23C5.30742 30.8306 1.33566 26.9629 0.848804 21.9862C0.646457 19.9178 0.5 17.7977 0.5 16C0.5 14.208 0.645534 12.0956 0.846897 10.0333Z" fill="white" stroke="#EBEEF2"/>
<path d="M16 27C22.0751 27 27 22.0751 27 16C27 9.92487 22.0751 5 16 5C9.92487 5 5 9.92487 5 16C5 22.0751 9.92487 27 16 27Z" fill="url(#paint0_linear_12512_1813)"/>
<path d="M25 14.0318C24.7065 12.8266 24.1751 11.6935 23.4379 10.7002C22.7007 9.70679 21.7724 8.87352 20.7085 8.25008C19.6452 7.62664 18.4681 7.22584 17.2474 7.07162C16.0267 6.91737 14.788 7.01288 13.6049 7.35239C15.5813 7.59642 17.7755 8.34507 19.9272 9.6062C22.0789 10.8673 23.8114 12.4192 25 14.0318Z" fill="white"/>
<path d="M7.39474 18.4378C9.1833 17.8282 11.6835 18.1733 13.9931 19.5271C16.3027 20.8813 17.8403 22.9017 18.2018 24.7712C17.8403 24.8542 17.475 24.9152 17.1069 24.954C16.9975 24.9655 16.888 24.975 16.7786 24.9826C16.6626 24.9906 16.5466 24.9964 16.4307 25C15.6913 23.6196 14.4837 22.3426 12.9047 21.4173C11.3258 20.4921 9.62868 20.0662 8.07477 20.1025C7.79492 19.5711 7.56733 19.0136 7.39474 18.4378Z" fill="white"/>
<path d="M11.5604 23.7534C10.4437 23.0991 9.47677 22.214 8.72323 21.1562C9.91343 21.2383 11.1831 21.6221 12.382 22.3247C13.5809 23.0272 14.5414 23.95 15.2024 24.953C13.918 24.8165 12.6771 24.4077 11.5604 23.7534Z" fill="white"/>
<path d="M17.2441 13.8817C19.3795 15.1331 21.1125 16.7563 22.1241 18.4515C23.0127 19.9418 23.2185 21.3256 22.6871 22.2487L22.6784 22.2667C22.5537 22.3939 22.4247 22.5162 22.2935 22.6346C22.1808 21.8374 21.8966 21.0031 21.4403 20.1556C20.4232 18.2746 18.6537 16.53 16.4601 15.2441C14.2664 13.9583 11.8893 13.2728 9.76534 13.3131C8.8098 13.3314 7.95118 13.4958 7.20962 13.7911C7.24719 13.6172 7.28802 13.4439 7.33593 13.271L7.34682 13.2548C7.87768 12.3326 9.17132 11.8271 10.8946 11.8683C12.8535 11.9156 15.1093 12.6303 17.2441 13.8817Z" fill="white"/>
<path d="M15.62 16.7023C12.3505 14.7859 8.73739 14.4857 7 15.8231C7.00327 16.2417 7.03539 16.6596 7.09474 17.0738C7.60599 16.9175 8.13303 16.8191 8.66552 16.7804C10.6071 16.633 12.7474 17.1788 14.69 18.3179C16.6321 19.457 18.1637 21.0635 18.9984 22.8368C19.2292 23.3226 19.4056 23.833 19.5232 24.3585C19.9098 24.2056 20.2855 24.0265 20.6481 23.8224C20.9388 21.637 18.8906 18.619 15.62 16.7023Z" fill="white"/>
<path d="M18.884 11.0333C21.0341 12.2929 22.7824 13.9208 23.806 15.6142C24.5851 16.9055 24.8443 18.1041 24.5465 18.9738C23.6775 16.5727 21.4261 14.0395 18.2318 12.1673C15.0379 10.2951 11.7423 9.57726 9.24374 10.0044C9.84537 9.31218 11.0062 8.94579 12.504 8.98942C14.4695 9.04768 16.7339 9.77374 18.884 11.0333Z" fill="white"/>
</g>
<defs>
<linearGradient id="paint0_linear_12512_1813" x1="19.6506" y1="9.46874" x2="9.40816" y2="26.921" gradientUnits="userSpaceOnUse">
<stop offset="0.0001" stop-color="#BAED6A"/>
<stop offset="1" stop-color="#007FDB"/>
</linearGradient>
<clipPath id="clip0_12512_1813">
<rect width="32" height="32" fill="white"/>
</clipPath>
</defs>
</svg>
