<svg width="32" height="32" viewBox="0 0 32 32" fill="none" xmlns="http://www.w3.org/2000/svg">
<g clip-path="url(#clip0_10035_2390)">
<path d="M0.846897 10.0333C1.33368 5.04792 5.31806 1.17702 10.3175 0.77696C12.3315 0.615794 14.3889 0.5 16.1381 0.5C17.8062 0.5 19.7546 0.605291 21.6787 0.754869C26.8047 1.15334 30.8446 5.20251 31.2405 10.3297C31.3924 12.2968 31.5 14.2936 31.5 16C31.5 17.7007 31.3931 19.69 31.242 21.6509C30.8462 26.7866 26.7941 30.8388 21.6583 31.2383C19.6883 31.3915 17.6935 31.5 16 31.5C14.2759 31.5 12.2653 31.3875 10.2968 31.23C5.30742 30.8306 1.33566 26.9629 0.848804 21.9862C0.646457 19.9178 0.5 17.7977 0.5 16C0.5 14.208 0.645534 12.0956 0.846897 10.0333Z" fill="white" stroke="#EBEEF2"/>
<path fill-rule="evenodd" clip-rule="evenodd" d="M20.6939 6C18.9014 6 17.1905 6.59974 15.9513 7.97585C14.7397 9.32141 14.2449 11.114 14.2449 12.9959H14C11.5266 12.9959 9.48622 13.5946 8.03587 14.8699C6.54973 16.1766 6 17.9146 6 19.4979C6 22.781 8.68403 26 12.5306 26C14.5392 26 16.1689 25.0452 17.2517 23.8288C18.3017 22.6491 18.9796 21.0686 18.9796 19.4979V17.7695H23.6327V12.9959H18.9796C18.9796 11.9148 19.2603 11.4029 19.4568 11.1846C19.6258 10.997 19.9558 10.7737 20.6939 10.7737H26V6H20.6939ZM14.2449 17.7695V12.9959H18.9796V17.7695H14.2449ZM14.2449 17.7695V19.4979C14.2449 19.738 14.1065 20.2151 13.7279 20.6404C13.3821 21.0289 12.971 21.2263 12.5306 21.2263C11.4792 21.2263 10.7347 20.3301 10.7347 19.4979C10.7347 19.0237 10.8788 18.7041 11.1478 18.4676C11.4526 18.1996 12.2286 17.7695 14 17.7695H14.2449Z" fill="#6DEA94"/>
</g>
<defs>
<clipPath id="clip0_10035_2390">
<rect width="32" height="32" fill="white"/>
</clipPath>
</defs>
</svg>
