<svg width="32" height="32" viewBox="0 0 32 32" fill="none" xmlns="http://www.w3.org/2000/svg">
<path d="M0.846897 10.0333C1.33368 5.04792 5.31806 1.17702 10.3175 0.77696C12.3315 0.615794 14.3889 0.5 16.1381 0.5C17.8062 0.5 19.7546 0.605291 21.6787 0.754869C26.8047 1.15334 30.8446 5.20251 31.2405 10.3297C31.3924 12.2968 31.5 14.2936 31.5 16C31.5 17.7007 31.3931 19.69 31.242 21.6509C30.8462 26.7866 26.7941 30.8388 21.6583 31.2383C19.6883 31.3915 17.6935 31.5 16 31.5C14.2759 31.5 12.2653 31.3875 10.2968 31.23C5.30742 30.8306 1.33566 26.9629 0.848804 21.9862C0.646457 19.9178 0.5 17.7977 0.5 16C0.5 14.208 0.645534 12.0956 0.846897 10.0333Z" fill="white" stroke="#EBEEF2"/>
<g clip-path="url(#clip0)">
<path d="M19.2349 18.8746H18.2617C18.0815 18.8746 17.9283 18.7304 17.9283 18.5412V15.9821L16.2253 17.0453C16.0811 17.1355 15.9009 17.1355 15.7567 17.0453L14.0626 15.9821V18.5412C14.0626 18.7214 13.9184 18.8746 13.7292 18.8746H12.765C12.5848 18.8746 12.4316 18.7304 12.4316 18.5412V13.6032C12.4316 13.3599 12.6299 13.1616 12.8732 13.1616C12.9633 13.1616 13.0444 13.1887 13.1165 13.2427L15.8017 15.09C15.9099 15.1711 16.0631 15.1711 16.1712 15.09L18.8565 13.2427C19.0547 13.1076 19.334 13.1616 19.4692 13.3599C19.5233 13.4319 19.5413 13.5221 19.5503 13.6032V18.5412C19.5593 18.7214 19.4151 18.8746 19.2349 18.8746Z" fill="#FF4A4A"/>
<path d="M10.9799 18.866H4.94251C4.69922 18.866 4.50098 18.6677 4.50098 18.4244V13.4594C4.50999 13.2702 4.65416 13.126 4.84339 13.126H5.81658C5.9968 13.126 6.14998 13.2702 6.14998 13.4594V17.235H9.80843V13.4594C9.80843 13.2792 9.95261 13.126 10.1418 13.126H11.088C11.2682 13.126 11.4214 13.2702 11.4214 13.4594V18.4244C11.4214 18.6677 11.2232 18.866 10.9799 18.866Z" fill="#FF4A4A"/>
<path d="M21.0187 13.1255H27.056C27.2993 13.1255 27.4976 13.3237 27.4976 13.567V18.5321C27.4976 18.7123 27.3534 18.8655 27.1732 18.8655H26.2C26.0198 18.8655 25.8666 18.7213 25.8666 18.5321V14.9727C25.8666 14.8556 25.7675 14.7565 25.6503 14.7565H22.4334C22.3163 14.7565 22.2171 14.8556 22.2171 14.9727V18.5321C22.2171 18.7123 22.073 18.8655 21.8837 18.8655H20.9106C20.7303 18.8655 20.5771 18.7213 20.5771 18.5321V13.567C20.5771 13.3237 20.7754 13.1255 21.0187 13.1255Z" fill="#FF4A4A"/>
<path d="M23.5512 15.8018H24.5154C24.6956 15.8018 24.8488 15.9459 24.8488 16.1352V17.1174C24.8488 17.2976 24.7046 17.4508 24.5154 17.4508H23.5512C23.371 17.4508 23.2178 17.3066 23.2178 17.1174V16.1262C23.2178 15.9459 23.371 15.8018 23.5512 15.8018Z" fill="#FF4A4A"/>
</g>
<defs>
<clipPath id="clip0">
<rect width="22.9779" height="5.74899" fill="white" transform="translate(4.51074 13.1255)"/>
</clipPath>
</defs>
</svg>
