<svg width="32" height="32" viewBox="0 0 32 32" fill="none" xmlns="http://www.w3.org/2000/svg">
<g clip-path="url(#clip0_7935_1335)">
<path d="M0.846897 10.0333C1.33368 5.04792 5.31806 1.17702 10.3175 0.77696C12.3315 0.615794 14.3889 0.5 16.1381 0.5C17.8062 0.5 19.7546 0.605291 21.6787 0.754869C26.8047 1.15334 30.8446 5.20251 31.2405 10.3297C31.3924 12.2968 31.5 14.2936 31.5 16C31.5 17.7007 31.3931 19.69 31.242 21.6509C30.8462 26.7866 26.7941 30.8388 21.6583 31.2383C19.6883 31.3915 17.6935 31.5 16 31.5C14.2759 31.5 12.2653 31.3875 10.2968 31.23C5.30742 30.8306 1.33566 26.9629 0.848804 21.9862C0.646457 19.9178 0.5 17.7977 0.5 16C0.5 14.208 0.645534 12.0956 0.846897 10.0333Z" fill="white" stroke="#EBEEF2"/>
<path d="M5.1377 17.7448C5.97377 22.9908 10.5187 27 16.0001 27C22.0752 27 27.0001 22.0751 27.0001 16C27.0001 15.3625 26.9459 14.7376 26.8418 14.1298L23.2365 14.7303C23.3084 15.1427 23.3458 15.567 23.3458 16C23.3458 20.0569 20.057 23.3457 16.0001 23.3457C12.3324 23.3457 9.29252 20.6578 8.74292 17.1443L5.1377 17.7448Z" fill="url(#paint0_linear_7935_1335)"/>
<path d="M26.8509 14.322C26.8509 15.3311 26.0329 16.1491 25.0238 16.1491C24.0147 16.1491 23.1967 15.3311 23.1967 14.322C23.1967 13.3129 24.0147 12.4949 25.0238 12.4949C26.0329 12.4949 26.8509 13.3129 26.8509 14.322Z" fill="url(#paint1_linear_7935_1335)"/>
<path d="M18.2053 21.733C17.5695 20.9495 17.6892 19.7988 18.4728 19.163C19.2563 18.5271 20.407 18.6469 21.0428 19.4304L24.7262 23.9694C25.362 24.7529 25.2423 25.9036 24.4587 26.5394C23.6752 27.1753 22.5245 27.0555 21.8887 26.272L18.2053 21.733Z" fill="url(#paint2_linear_7935_1335)"/>
<path d="M5 16C5 16.5938 5.04705 17.1766 5.13761 17.7449L5.14111 17.7443C5.29536 18.5972 6.04163 19.2441 6.93898 19.2441C7.94806 19.2441 8.7661 18.426 8.7661 17.4169C8.7661 17.2883 8.75277 17.1627 8.72747 17.0415C8.67918 16.7013 8.65424 16.3536 8.65424 16C8.65424 11.943 11.9431 8.65424 16 8.65424C19.6239 8.65424 22.635 11.2785 23.2364 14.7304L23.2422 14.7294C23.2124 14.5984 23.1966 14.4621 23.1966 14.322C23.1966 13.3129 24.0147 12.4949 25.0237 12.4949C25.8734 12.4949 26.5876 13.0749 26.7921 13.8606C25.7964 8.80952 21.3431 5 16 5C9.92487 5 5 9.92487 5 16Z" fill="url(#paint3_linear_7935_1335)"/>
<path d="M26.8395 14.1172C26.84 14.1215 26.8404 14.1257 26.8409 14.13L26.8417 14.1299C26.8409 14.1257 26.8402 14.1214 26.8395 14.1172Z" fill="url(#paint4_linear_7935_1335)"/>
</g>
<defs>
<linearGradient id="paint0_linear_7935_1335" x1="5.14924" y1="19.7661" x2="27.5594" y2="16.1678" gradientUnits="userSpaceOnUse">
<stop stop-color="#0EC5FF"/>
<stop offset="0.397081" stop-color="#1480F9"/>
<stop offset="0.620079" stop-color="#9750F2"/>
<stop offset="1" stop-color="#FF2AEC"/>
</linearGradient>
<linearGradient id="paint1_linear_7935_1335" x1="5.14924" y1="19.7661" x2="27.5594" y2="16.1678" gradientUnits="userSpaceOnUse">
<stop stop-color="#0EC5FF"/>
<stop offset="0.397081" stop-color="#1480F9"/>
<stop offset="0.620079" stop-color="#9750F2"/>
<stop offset="1" stop-color="#FF2AEC"/>
</linearGradient>
<linearGradient id="paint2_linear_7935_1335" x1="5.14924" y1="19.7661" x2="27.5594" y2="16.1678" gradientUnits="userSpaceOnUse">
<stop stop-color="#0EC5FF"/>
<stop offset="0.397081" stop-color="#1480F9"/>
<stop offset="0.620079" stop-color="#9750F2"/>
<stop offset="1" stop-color="#FF2AEC"/>
</linearGradient>
<linearGradient id="paint3_linear_7935_1335" x1="5" y1="19.2441" x2="33.8051" y2="10.7237" gradientUnits="userSpaceOnUse">
<stop offset="0.168884" stop-color="#FFE00C"/>
<stop offset="1" stop-color="#31DD3F"/>
</linearGradient>
<linearGradient id="paint4_linear_7935_1335" x1="5" y1="19.2441" x2="33.8051" y2="10.7237" gradientUnits="userSpaceOnUse">
<stop offset="0.168884" stop-color="#FFE00C"/>
<stop offset="1" stop-color="#31DD3F"/>
</linearGradient>
<clipPath id="clip0_7935_1335">
<rect width="32" height="32" fill="white"/>
</clipPath>
</defs>
</svg>
