<svg width="32" height="32" viewBox="0 0 32 32" fill="none" xmlns="http://www.w3.org/2000/svg">
<path d="M0.846897 10.0333C1.33368 5.04792 5.31806 1.17702 10.3175 0.77696C12.3315 0.615794 14.3889 0.5 16.1381 0.5C17.8062 0.5 19.7546 0.605291 21.6787 0.754869C26.8047 1.15334 30.8446 5.20251 31.2405 10.3297C31.3924 12.2968 31.5 14.2936 31.5 16C31.5 17.7007 31.3931 19.69 31.242 21.6509C30.8462 26.7866 26.7941 30.8388 21.6583 31.2383C19.6883 31.3915 17.6935 31.5 16 31.5C14.2759 31.5 12.2653 31.3875 10.2968 31.23C5.30742 30.8306 1.33566 26.9629 0.848804 21.9862C0.646457 19.9178 0.5 17.7977 0.5 16C0.5 14.208 0.645534 12.0956 0.846897 10.0333Z" fill="white" stroke="#EBEEF2"/>
<path d="M24 15.5616C24 14.4714 21.2548 13.5618 17.6067 13.352L17.6065 11.615H22.1615V8H9.70614V11.615H14.2608V13.3605C10.6792 13.5847 8 14.4848 8 15.5616C8 16.6385 10.6792 17.5386 14.2608 17.7625V24H17.6065V17.771C21.2548 17.5616 24 16.6517 24 15.5616ZM16 16.6355C12.0843 16.6355 8.90987 15.9806 8.90987 15.1723C8.90987 14.4879 11.1861 13.9133 14.2608 13.7535V14.1654H14.2612V15.8536C14.8155 15.8872 15.3981 15.9048 16 15.9048C16.5542 15.9048 17.0924 15.8896 17.6068 15.8617V13.7472C20.7482 13.8973 23.0902 14.4779 23.0902 15.1723C23.0901 15.9806 19.9157 16.6355 16 16.6355Z" fill="#4F9E7E"/>
</svg>
