<svg width="32" height="32" viewBox="0 0 32 32" fill="none" xmlns="http://www.w3.org/2000/svg">
<path d="M0.846897 10.0333C1.33368 5.04792 5.31806 1.17702 10.3175 0.77696C12.3315 0.615794 14.3889 0.5 16.1381 0.5C17.8062 0.5 19.7546 0.605291 21.6787 0.754869C26.8047 1.15334 30.8446 5.20251 31.2405 10.3297C31.3924 12.2968 31.5 14.2936 31.5 16C31.5 17.7007 31.3931 19.69 31.242 21.6509C30.8462 26.7866 26.7941 30.8388 21.6583 31.2383C19.6883 31.3915 17.6935 31.5 16 31.5C14.2759 31.5 12.2653 31.3875 10.2968 31.23C5.30742 30.8306 1.33566 26.9629 0.848804 21.9862C0.646457 19.9178 0.5 17.7977 0.5 16C0.5 14.208 0.645534 12.0956 0.846897 10.0333Z" fill="white" stroke="#EBEEF2"/>
<path d="M19.0672 17.7676C19.0672 16.0249 18.1217 15.4274 16.2305 15.1785C14.8797 14.9793 14.6095 14.581 14.6095 13.8838C14.6095 13.1866 15.0598 12.7386 15.9604 12.7386C16.7708 12.7386 17.2212 13.0374 17.4463 13.7843C17.4913 13.9336 17.6264 14.0332 17.7615 14.0332H18.4818C18.662 14.0332 18.7971 13.8838 18.7971 13.6847V13.6349C18.6169 12.5394 17.8064 11.693 16.7708 11.5934V10.3984C16.7708 10.1992 16.6358 10.0498 16.4107 10H15.7353C15.5551 10 15.42 10.1494 15.375 10.3984V11.5436C14.0241 11.7428 13.1687 12.7386 13.1687 13.9835C13.1687 15.6266 14.0692 16.2738 15.9604 16.5229C17.2212 16.7718 17.6264 17.0706 17.6264 17.8673C17.6264 18.664 16.9959 19.2117 16.1405 19.2117C14.9697 19.2117 14.5645 18.6639 14.4294 17.917C14.3844 17.7179 14.2494 17.6182 14.1143 17.6182H13.3487C13.1687 17.6182 13.0336 17.7676 13.0336 17.9668V18.0167C13.2137 19.2614 13.9341 20.1576 15.42 20.4067V21.6017C15.42 21.8008 15.5551 21.9502 15.7802 22H16.4556C16.6358 22 16.7708 21.8506 16.8159 21.6017V20.4067C18.1667 20.1576 19.0672 19.112 19.0672 17.7676Z" fill="#0066FF"/>
<path d="M13.1323 22.474C9.4384 21.1793 7.54403 17.1561 8.91749 13.5953C9.62787 11.6531 11.1907 10.1734 13.1323 9.47974C13.3218 9.38729 13.4165 9.24856 13.4165 9.01727V8.36991C13.4165 8.1849 13.3218 8.04617 13.1323 8C13.085 8 12.9903 8 12.9429 8.04617C8.44387 9.43346 5.9812 14.1041 7.40195 18.4971C8.2544 21.0867 10.2908 23.0752 12.9429 23.9076C13.1323 24 13.3218 23.9076 13.3691 23.7225C13.4165 23.6764 13.4165 23.6301 13.4165 23.5376V22.8902C13.4165 22.7514 13.2744 22.5665 13.1323 22.474ZM19.0571 8.04617C18.8677 7.95372 18.6782 8.04617 18.6309 8.23118C18.5835 8.27746 18.5835 8.32363 18.5835 8.41619V9.06355C18.5835 9.24856 18.7256 9.43346 18.8677 9.52602C22.5616 10.8207 24.456 14.8439 23.0825 18.4047C22.3721 20.3469 20.8093 21.8266 18.8677 22.5203C18.6782 22.6127 18.5835 22.7514 18.5835 22.9827V23.6301C18.5835 23.8151 18.6782 23.9538 18.8677 24C18.915 24 19.0097 24 19.0571 23.9538C23.5561 22.5665 26.0188 17.8959 24.598 13.5029C23.7456 10.867 21.6618 8.87854 19.0571 8.04617Z" fill="#0066FF"/>
</svg>
